<svg width="773" height="234" viewBox="0 0 773 234" fill="none" xmlns="http://www.w3.org/2000/svg">
<rect width="773" height="234" rx="30" fill="white"/>
<g filter="url(#filter0_d)">
<rect x="334" y="63" width="143" height="140" rx="4" fill="white"/>
<rect x="334.5" y="63.5" width="142" height="139" rx="3.5" stroke="#BBBBBB"/>
</g>
<g filter="url(#filter1_d)">
<rect x="37" y="71" width="171" height="55" rx="4" fill="white"/>
<rect x="37.5" y="71.5" width="170" height="54" rx="3.5" stroke="#BBBBBB"/>
</g>
<path d="M66.2324 101.318C66.2324 101.42 66.2129 101.516 66.1738 101.605C66.1348 101.695 66.0781 101.777 66.0039 101.852C65.8828 101.973 65.7148 102.068 65.5 102.139C65.2852 102.205 65.0332 102.238 64.7441 102.238C64.5605 102.238 64.375 102.219 64.1875 102.18C64 102.141 63.8301 102.074 63.6777 101.98C63.5215 101.887 63.3906 101.764 63.2852 101.611C63.1836 101.459 63.125 101.271 63.1094 101.049H62.0254C62.0254 101.318 62.0859 101.578 62.207 101.828C62.332 102.078 62.5117 102.297 62.7461 102.484C62.9766 102.676 63.2598 102.83 63.5957 102.947C63.9316 103.061 64.3145 103.117 64.7441 103.117C65.1191 103.117 65.4648 103.072 65.7812 102.982C66.0977 102.893 66.3691 102.766 66.5957 102.602C66.8223 102.438 66.998 102.24 67.123 102.01C67.252 101.779 67.3164 101.523 67.3164 101.242C67.3164 100.98 67.2598 100.75 67.1465 100.551C67.0371 100.352 66.877 100.176 66.666 100.023C66.4551 99.875 66.1953 99.748 65.8867 99.6426C65.5781 99.5332 65.2285 99.4375 64.8379 99.3555C64.541 99.2969 64.2949 99.2363 64.0996 99.1738C63.9082 99.1113 63.7559 99.041 63.6426 98.9629C63.5254 98.8848 63.4434 98.7969 63.3965 98.6992C63.3496 98.6016 63.3262 98.4902 63.3262 98.3652C63.3262 98.2441 63.3555 98.127 63.4141 98.0137C63.4727 97.9004 63.5605 97.8008 63.6777 97.7148C63.791 97.6289 63.9336 97.5605 64.1055 97.5098C64.2812 97.459 64.4844 97.4336 64.7148 97.4336C64.9375 97.4336 65.1367 97.4648 65.3125 97.5273C65.4922 97.5898 65.6445 97.6719 65.7695 97.7734C65.8945 97.875 65.9922 97.9922 66.0625 98.125C66.1328 98.2539 66.168 98.3867 66.168 98.5234H67.252C67.252 98.2461 67.1914 97.9883 67.0703 97.75C66.9531 97.5078 66.7852 97.2969 66.5664 97.1172C66.3477 96.9375 66.082 96.7969 65.7695 96.6953C65.457 96.5938 65.1055 96.543 64.7148 96.543C64.3516 96.543 64.0176 96.5918 63.7129 96.6895C63.4121 96.7871 63.1523 96.9199 62.9336 97.0879C62.7148 97.2559 62.5449 97.4531 62.4238 97.6797C62.3027 97.9023 62.2422 98.1426 62.2422 98.4004C62.2422 98.6621 62.3008 98.8926 62.418 99.0918C62.5352 99.2871 62.7012 99.457 62.916 99.6016C63.127 99.75 63.3809 99.877 63.6777 99.9824C63.9785 100.088 64.3105 100.178 64.6738 100.252C64.9707 100.311 65.2188 100.377 65.418 100.451C65.6172 100.521 65.7773 100.6 65.8984 100.686C66.0195 100.771 66.1055 100.867 66.1562 100.973C66.207 101.074 66.2324 101.189 66.2324 101.318ZM71.793 95.125H70.7031V96.6602H69.0391V97.498H70.7031V100.943C70.7031 101.334 70.7539 101.668 70.8555 101.945C70.9609 102.219 71.1035 102.441 71.2832 102.613C71.4629 102.789 71.6738 102.918 71.916 103C72.1621 103.078 72.4258 103.117 72.707 103.117C72.875 103.117 73.043 103.109 73.2109 103.094C73.3828 103.078 73.5449 103.055 73.6973 103.023C73.8496 102.996 73.9902 102.963 74.1191 102.924C74.248 102.881 74.3574 102.832 74.4473 102.777L74.2949 102.01C74.2285 102.025 74.1426 102.045 74.0371 102.068C73.9355 102.088 73.8262 102.107 73.709 102.127C73.5879 102.146 73.4648 102.164 73.3398 102.18C73.2148 102.191 73.0938 102.197 72.9766 102.197C72.8164 102.197 72.6641 102.178 72.5195 102.139C72.3789 102.1 72.2539 102.031 72.1445 101.934C72.0352 101.84 71.9492 101.713 71.8867 101.553C71.8242 101.393 71.793 101.189 71.793 100.943V97.498H74.207V96.6602H71.793V95.125ZM80.5996 103H81.7305V102.906C81.6602 102.73 81.6055 102.525 81.5664 102.291C81.5273 102.053 81.5078 101.828 81.5078 101.617V98.6699C81.5078 98.3145 81.4434 98.0039 81.3145 97.7383C81.1855 97.4727 81.0098 97.25 80.7871 97.0703C80.5605 96.8945 80.293 96.7637 79.9844 96.6777C79.6758 96.5879 79.3418 96.543 78.9824 96.543C78.5879 96.543 78.2344 96.5977 77.9219 96.707C77.6133 96.8164 77.3516 96.959 77.1367 97.1348C76.918 97.3145 76.75 97.5156 76.6328 97.7383C76.5195 97.9609 76.4609 98.1875 76.457 98.418H77.5469C77.5469 98.2852 77.5781 98.1582 77.6406 98.0371C77.707 97.9121 77.7988 97.8047 77.916 97.7148C78.0332 97.625 78.1758 97.5527 78.3438 97.498C78.5156 97.4434 78.709 97.416 78.9238 97.416C79.1543 97.416 79.3613 97.4453 79.5449 97.5039C79.7324 97.5625 79.8906 97.6445 80.0195 97.75C80.1484 97.8594 80.248 97.9902 80.3184 98.1426C80.3887 98.2949 80.4238 98.4668 80.4238 98.6582V99.1562H79.2402C78.7988 99.1562 78.3984 99.1992 78.0391 99.2852C77.6836 99.3711 77.3789 99.5 77.125 99.6719C76.8711 99.8477 76.6738 100.066 76.5332 100.328C76.3965 100.59 76.3281 100.895 76.3281 101.242C76.3281 101.508 76.3789 101.756 76.4805 101.986C76.5859 102.213 76.7344 102.408 76.9258 102.572C77.1133 102.74 77.3418 102.873 77.6113 102.971C77.8848 103.068 78.1895 103.117 78.5254 103.117C78.7324 103.117 78.9277 103.096 79.1113 103.053C79.2949 103.01 79.4688 102.951 79.6328 102.877C79.793 102.803 79.9395 102.717 80.0723 102.619C80.209 102.521 80.332 102.418 80.4414 102.309C80.4531 102.441 80.4707 102.57 80.4941 102.695C80.5215 102.816 80.5566 102.918 80.5996 103ZM78.6836 102.174C78.4727 102.174 78.2871 102.146 78.127 102.092C77.9668 102.037 77.834 101.961 77.7285 101.863C77.623 101.77 77.543 101.656 77.4883 101.523C77.4375 101.391 77.4121 101.246 77.4121 101.09C77.4121 100.926 77.4414 100.779 77.5 100.65C77.5625 100.521 77.6523 100.41 77.7695 100.316C77.9336 100.184 78.1543 100.086 78.4316 100.023C78.7129 99.957 79.041 99.9238 79.416 99.9238H80.4238V101.207C80.3613 101.332 80.2754 101.453 80.166 101.57C80.0566 101.684 79.9277 101.785 79.7793 101.875C79.627 101.965 79.459 102.037 79.2754 102.092C79.0918 102.146 78.8945 102.174 78.6836 102.174ZM86.207 95.125H85.1172V96.6602H83.4531V97.498H85.1172V100.943C85.1172 101.334 85.168 101.668 85.2695 101.945C85.375 102.219 85.5176 102.441 85.6973 102.613C85.877 102.789 86.0879 102.918 86.3301 103C86.5762 103.078 86.8398 103.117 87.1211 103.117C87.2891 103.117 87.457 103.109 87.625 103.094C87.7969 103.078 87.959 103.055 88.1113 103.023C88.2637 102.996 88.4043 102.963 88.5332 102.924C88.6621 102.881 88.7715 102.832 88.8613 102.777L88.709 102.01C88.6426 102.025 88.5566 102.045 88.4512 102.068C88.3496 102.088 88.2402 102.107 88.123 102.127C88.002 102.146 87.8789 102.164 87.7539 102.18C87.6289 102.191 87.5078 102.197 87.3906 102.197C87.2305 102.197 87.0781 102.178 86.9336 102.139C86.793 102.1 86.668 102.031 86.5586 101.934C86.4492 101.84 86.3633 101.713 86.3008 101.553C86.2383 101.393 86.207 101.189 86.207 100.943V97.498H88.6211V96.6602H86.207V95.125ZM93.6484 103.117C94.2656 103.117 94.7832 102.994 95.2012 102.748C95.623 102.498 95.9395 102.213 96.1504 101.893L95.4883 101.377C95.2891 101.635 95.0391 101.842 94.7383 101.998C94.4375 102.154 94.0938 102.232 93.707 102.232C93.4141 102.232 93.1465 102.178 92.9043 102.068C92.6621 101.959 92.4551 101.809 92.2832 101.617C92.1152 101.438 91.9824 101.23 91.8848 100.996C91.791 100.762 91.7305 100.49 91.7031 100.182V100.141H96.2324V99.6543C96.2324 99.2129 96.1758 98.8027 96.0625 98.4238C95.9531 98.0449 95.7852 97.7148 95.5586 97.4336C95.332 97.1562 95.0469 96.9395 94.7031 96.7832C94.3633 96.623 93.9648 96.543 93.5078 96.543C93.1445 96.543 92.7891 96.6172 92.4414 96.7656C92.0977 96.9141 91.791 97.127 91.5215 97.4043C91.248 97.6855 91.0293 98.0293 90.8652 98.4355C90.7012 98.8379 90.6191 99.2949 90.6191 99.8066V100.053C90.6191 100.494 90.6934 100.902 90.8418 101.277C90.9902 101.652 91.1973 101.977 91.4629 102.25C91.7285 102.523 92.0469 102.736 92.418 102.889C92.793 103.041 93.2031 103.117 93.6484 103.117ZM93.5078 97.4336C93.7852 97.4336 94.0234 97.4844 94.2227 97.5859C94.4258 97.6875 94.5938 97.8203 94.7266 97.9844C94.8594 98.1484 94.9629 98.3438 95.0371 98.5703C95.1113 98.793 95.1484 99.002 95.1484 99.1973V99.25H91.7383C91.7812 98.957 91.8555 98.6992 91.9609 98.4766C92.0703 98.25 92.2031 98.0586 92.3594 97.9023C92.5156 97.75 92.6914 97.6348 92.8867 97.5566C93.082 97.4746 93.2891 97.4336 93.5078 97.4336Z" fill="black"/>
<path d="M367.586 180.125H366.496V181.66H364.832V182.498H366.496V185.943C366.496 186.334 366.547 186.668 366.648 186.945C366.754 187.219 366.896 187.441 367.076 187.613C367.256 187.789 367.467 187.918 367.709 188C367.955 188.078 368.219 188.117 368.5 188.117C368.668 188.117 368.836 188.109 369.004 188.094C369.176 188.078 369.338 188.055 369.49 188.023C369.643 187.996 369.783 187.963 369.912 187.924C370.041 187.881 370.15 187.832 370.24 187.777L370.088 187.01C370.021 187.025 369.936 187.045 369.83 187.068C369.729 187.088 369.619 187.107 369.502 187.127C369.381 187.146 369.258 187.164 369.133 187.18C369.008 187.191 368.887 187.197 368.77 187.197C368.609 187.197 368.457 187.178 368.312 187.139C368.172 187.1 368.047 187.031 367.938 186.934C367.828 186.84 367.742 186.713 367.68 186.553C367.617 186.393 367.586 186.189 367.586 185.943V182.498H370V181.66H367.586V180.125ZM372.396 181.66V182.604H374.553V187.062H372.396V188H377.705V187.062H375.637V181.66H372.396ZM374.412 179.996C374.412 180.172 374.465 180.318 374.57 180.436C374.68 180.553 374.844 180.611 375.062 180.611C375.277 180.611 375.439 180.553 375.549 180.436C375.658 180.318 375.713 180.172 375.713 179.996C375.713 179.898 375.697 179.809 375.666 179.727C375.635 179.645 375.588 179.576 375.525 179.521C375.475 179.471 375.41 179.432 375.332 179.404C375.254 179.373 375.164 179.357 375.062 179.357C374.961 179.357 374.869 179.373 374.787 179.404C374.709 179.432 374.645 179.471 374.594 179.521C374.531 179.58 374.484 179.65 374.453 179.732C374.426 179.814 374.412 179.902 374.412 179.996ZM379.932 181.66H378.959V188H379.99V182.955C380.014 182.893 380.043 182.834 380.078 182.779C380.117 182.725 380.162 182.676 380.213 182.633C380.279 182.578 380.359 182.537 380.453 182.51C380.551 182.479 380.664 182.463 380.793 182.463C380.91 182.463 381.012 182.479 381.098 182.51C381.188 182.537 381.262 182.582 381.32 182.645C381.383 182.711 381.428 182.795 381.455 182.896C381.486 182.998 381.502 183.115 381.502 183.248V188H382.533V183.254C382.533 183.23 382.533 183.211 382.533 183.195C382.533 183.176 382.533 183.156 382.533 183.137C382.545 183.039 382.568 182.951 382.604 182.873C382.639 182.791 382.688 182.719 382.75 182.656C382.812 182.598 382.891 182.551 382.984 182.516C383.078 182.48 383.189 182.463 383.318 182.463C383.439 182.463 383.545 182.479 383.635 182.51C383.729 182.541 383.807 182.588 383.869 182.65C383.928 182.717 383.973 182.801 384.004 182.902C384.035 183.004 384.051 183.121 384.051 183.254V188H385.082V183.266C385.082 182.961 385.047 182.697 384.977 182.475C384.906 182.248 384.805 182.064 384.672 181.924C384.551 181.799 384.402 181.705 384.227 181.643C384.051 181.576 383.854 181.543 383.635 181.543C383.475 181.547 383.326 181.568 383.189 181.607C383.057 181.646 382.936 181.699 382.826 181.766C382.74 181.824 382.66 181.893 382.586 181.971C382.512 182.049 382.447 182.133 382.393 182.223C382.35 182.125 382.297 182.037 382.234 181.959C382.176 181.881 382.109 181.814 382.035 181.76C381.934 181.689 381.814 181.637 381.678 181.602C381.545 181.562 381.395 181.543 381.227 181.543C380.93 181.547 380.676 181.611 380.465 181.736C380.258 181.861 380.09 182.035 379.961 182.258L379.932 181.66ZM389.441 188.117C390.059 188.117 390.576 187.994 390.994 187.748C391.416 187.498 391.732 187.213 391.943 186.893L391.281 186.377C391.082 186.635 390.832 186.842 390.531 186.998C390.23 187.154 389.887 187.232 389.5 187.232C389.207 187.232 388.939 187.178 388.697 187.068C388.455 186.959 388.248 186.809 388.076 186.617C387.908 186.438 387.775 186.23 387.678 185.996C387.584 185.762 387.523 185.49 387.496 185.182V185.141H392.025V184.654C392.025 184.213 391.969 183.803 391.855 183.424C391.746 183.045 391.578 182.715 391.352 182.434C391.125 182.156 390.84 181.939 390.496 181.783C390.156 181.623 389.758 181.543 389.301 181.543C388.938 181.543 388.582 181.617 388.234 181.766C387.891 181.914 387.584 182.127 387.314 182.404C387.041 182.686 386.822 183.029 386.658 183.436C386.494 183.838 386.412 184.295 386.412 184.807V185.053C386.412 185.494 386.486 185.902 386.635 186.277C386.783 186.652 386.99 186.977 387.256 187.25C387.521 187.523 387.84 187.736 388.211 187.889C388.586 188.041 388.996 188.117 389.441 188.117ZM389.301 182.434C389.578 182.434 389.816 182.484 390.016 182.586C390.219 182.688 390.387 182.82 390.52 182.984C390.652 183.148 390.756 183.344 390.83 183.57C390.904 183.793 390.941 184.002 390.941 184.197V184.25H387.531C387.574 183.957 387.648 183.699 387.754 183.477C387.863 183.25 387.996 183.059 388.152 182.902C388.309 182.75 388.484 182.635 388.68 182.557C388.875 182.475 389.082 182.434 389.301 182.434ZM398.061 186.318C398.061 186.42 398.041 186.516 398.002 186.605C397.963 186.695 397.906 186.777 397.832 186.852C397.711 186.973 397.543 187.068 397.328 187.139C397.113 187.205 396.861 187.238 396.572 187.238C396.389 187.238 396.203 187.219 396.016 187.18C395.828 187.141 395.658 187.074 395.506 186.98C395.35 186.887 395.219 186.764 395.113 186.611C395.012 186.459 394.953 186.271 394.938 186.049H393.854C393.854 186.318 393.914 186.578 394.035 186.828C394.16 187.078 394.34 187.297 394.574 187.484C394.805 187.676 395.088 187.83 395.424 187.947C395.76 188.061 396.143 188.117 396.572 188.117C396.947 188.117 397.293 188.072 397.609 187.982C397.926 187.893 398.197 187.766 398.424 187.602C398.65 187.438 398.826 187.24 398.951 187.01C399.08 186.779 399.145 186.523 399.145 186.242C399.145 185.98 399.088 185.75 398.975 185.551C398.865 185.352 398.705 185.176 398.494 185.023C398.283 184.875 398.023 184.748 397.715 184.643C397.406 184.533 397.057 184.438 396.666 184.355C396.369 184.297 396.123 184.236 395.928 184.174C395.736 184.111 395.584 184.041 395.471 183.963C395.354 183.885 395.271 183.797 395.225 183.699C395.178 183.602 395.154 183.49 395.154 183.365C395.154 183.244 395.184 183.127 395.242 183.014C395.301 182.9 395.389 182.801 395.506 182.715C395.619 182.629 395.762 182.561 395.934 182.51C396.109 182.459 396.312 182.434 396.543 182.434C396.766 182.434 396.965 182.465 397.141 182.527C397.32 182.59 397.473 182.672 397.598 182.773C397.723 182.875 397.82 182.992 397.891 183.125C397.961 183.254 397.996 183.387 397.996 183.523H399.08C399.08 183.246 399.02 182.988 398.898 182.75C398.781 182.508 398.613 182.297 398.395 182.117C398.176 181.938 397.91 181.797 397.598 181.695C397.285 181.594 396.934 181.543 396.543 181.543C396.18 181.543 395.846 181.592 395.541 181.689C395.24 181.787 394.98 181.92 394.762 182.088C394.543 182.256 394.373 182.453 394.252 182.68C394.131 182.902 394.07 183.143 394.07 183.4C394.07 183.662 394.129 183.893 394.246 184.092C394.363 184.287 394.529 184.457 394.744 184.602C394.955 184.75 395.209 184.877 395.506 184.982C395.807 185.088 396.139 185.178 396.502 185.252C396.799 185.311 397.047 185.377 397.246 185.451C397.445 185.521 397.605 185.6 397.727 185.686C397.848 185.771 397.934 185.867 397.984 185.973C398.035 186.074 398.061 186.189 398.061 186.318ZM403.621 180.125H402.531V181.66H400.867V182.498H402.531V185.943C402.531 186.334 402.582 186.668 402.684 186.945C402.789 187.219 402.932 187.441 403.111 187.613C403.291 187.789 403.502 187.918 403.744 188C403.99 188.078 404.254 188.117 404.535 188.117C404.703 188.117 404.871 188.109 405.039 188.094C405.211 188.078 405.373 188.055 405.525 188.023C405.678 187.996 405.818 187.963 405.947 187.924C406.076 187.881 406.186 187.832 406.275 187.777L406.123 187.01C406.057 187.025 405.971 187.045 405.865 187.068C405.764 187.088 405.654 187.107 405.537 187.127C405.416 187.146 405.293 187.164 405.168 187.18C405.043 187.191 404.922 187.197 404.805 187.197C404.645 187.197 404.492 187.178 404.348 187.139C404.207 187.1 404.082 187.031 403.973 186.934C403.863 186.84 403.777 186.713 403.715 186.553C403.652 186.393 403.621 186.189 403.621 185.943V182.498H406.035V181.66H403.621V180.125ZM411.062 188.117C411.68 188.117 412.197 187.994 412.615 187.748C413.037 187.498 413.354 187.213 413.564 186.893L412.902 186.377C412.703 186.635 412.453 186.842 412.152 186.998C411.852 187.154 411.508 187.232 411.121 187.232C410.828 187.232 410.561 187.178 410.318 187.068C410.076 186.959 409.869 186.809 409.697 186.617C409.529 186.438 409.396 186.23 409.299 185.996C409.205 185.762 409.145 185.49 409.117 185.182V185.141H413.646V184.654C413.646 184.213 413.59 183.803 413.477 183.424C413.367 183.045 413.199 182.715 412.973 182.434C412.746 182.156 412.461 181.939 412.117 181.783C411.777 181.623 411.379 181.543 410.922 181.543C410.559 181.543 410.203 181.617 409.855 181.766C409.512 181.914 409.205 182.127 408.936 182.404C408.662 182.686 408.443 183.029 408.279 183.436C408.115 183.838 408.033 184.295 408.033 184.807V185.053C408.033 185.494 408.107 185.902 408.256 186.277C408.404 186.652 408.611 186.977 408.877 187.25C409.143 187.523 409.461 187.736 409.832 187.889C410.207 188.041 410.617 188.117 411.062 188.117ZM410.922 182.434C411.199 182.434 411.438 182.484 411.637 182.586C411.84 182.688 412.008 182.82 412.141 182.984C412.273 183.148 412.377 183.344 412.451 183.57C412.525 183.793 412.562 184.002 412.562 184.197V184.25H409.152C409.195 183.957 409.27 183.699 409.375 183.477C409.484 183.25 409.617 183.059 409.773 182.902C409.93 182.75 410.105 182.635 410.301 182.557C410.496 182.475 410.703 182.434 410.922 182.434ZM415.463 190.438H416.547V187.391C416.625 187.477 416.709 187.557 416.799 187.631C416.889 187.701 416.984 187.766 417.086 187.824C417.254 187.918 417.441 187.99 417.648 188.041C417.859 188.092 418.086 188.117 418.328 188.117C418.727 188.117 419.08 188.035 419.389 187.871C419.701 187.707 419.963 187.48 420.174 187.191C420.385 186.902 420.545 186.562 420.654 186.172C420.764 185.777 420.818 185.354 420.818 184.9V184.777C420.818 184.305 420.764 183.871 420.654 183.477C420.545 183.078 420.385 182.736 420.174 182.451C419.963 182.166 419.701 181.943 419.389 181.783C419.076 181.623 418.717 181.543 418.311 181.543C418.08 181.543 417.863 181.568 417.66 181.619C417.461 181.666 417.279 181.736 417.115 181.83C416.998 181.893 416.889 181.969 416.787 182.059C416.686 182.145 416.592 182.242 416.506 182.352L416.453 181.66H415.463V190.438ZM419.734 184.777V184.9C419.734 185.209 419.699 185.504 419.629 185.785C419.562 186.066 419.459 186.314 419.318 186.529C419.178 186.744 418.998 186.916 418.779 187.045C418.561 187.17 418.301 187.232 418 187.232C417.812 187.232 417.641 187.209 417.484 187.162C417.332 187.115 417.193 187.051 417.068 186.969C416.959 186.898 416.861 186.812 416.775 186.711C416.689 186.609 416.613 186.5 416.547 186.383V183.33C416.621 183.197 416.707 183.076 416.805 182.967C416.902 182.857 417.014 182.766 417.139 182.691C417.252 182.617 417.379 182.561 417.52 182.521C417.664 182.482 417.82 182.463 417.988 182.463C418.293 182.463 418.555 182.525 418.773 182.65C418.992 182.775 419.174 182.943 419.318 183.154C419.459 183.369 419.562 183.617 419.629 183.898C419.699 184.176 419.734 184.469 419.734 184.777ZM423.748 184.537V184.596C423.748 185.154 423.791 185.68 423.877 186.172C423.967 186.664 424.086 187.119 424.234 187.537C424.379 187.959 424.547 188.342 424.738 188.686C424.934 189.033 425.139 189.342 425.354 189.611C425.564 189.885 425.777 190.115 425.992 190.303C426.211 190.494 426.418 190.645 426.613 190.754L426.842 190.092C426.682 189.963 426.521 189.807 426.361 189.623C426.205 189.443 426.053 189.236 425.904 189.002C425.76 188.756 425.621 188.477 425.488 188.164C425.355 187.855 425.238 187.52 425.137 187.156C425.043 186.797 424.969 186.404 424.914 185.979C424.859 185.553 424.832 185.096 424.832 184.607V184.525C424.832 184.018 424.861 183.543 424.92 183.102C424.979 182.66 425.061 182.256 425.166 181.889C425.275 181.482 425.412 181.109 425.576 180.77C425.74 180.426 425.912 180.127 426.092 179.873C426.213 179.709 426.336 179.561 426.461 179.428C426.59 179.295 426.717 179.182 426.842 179.088L426.613 178.373C426.418 178.482 426.213 178.633 425.998 178.824C425.783 179.016 425.57 179.246 425.359 179.516C425.145 179.785 424.939 180.094 424.744 180.441C424.553 180.789 424.383 181.172 424.234 181.59C424.086 182.012 423.967 182.469 423.877 182.961C423.791 183.453 423.748 183.979 423.748 184.537ZM431.77 187.297C431.77 187.523 431.84 187.717 431.98 187.877C432.125 188.033 432.338 188.111 432.619 188.111C432.896 188.111 433.109 188.033 433.258 187.877C433.406 187.721 433.48 187.527 433.48 187.297C433.48 187.062 433.406 186.865 433.258 186.705C433.113 186.541 432.9 186.459 432.619 186.459C432.334 186.459 432.121 186.541 431.98 186.705C431.84 186.869 431.77 187.066 431.77 187.297ZM438.977 187.297C438.977 187.523 439.047 187.717 439.188 187.877C439.332 188.033 439.545 188.111 439.826 188.111C440.104 188.111 440.316 188.033 440.465 187.877C440.613 187.721 440.688 187.527 440.688 187.297C440.688 187.062 440.613 186.865 440.465 186.705C440.32 186.541 440.107 186.459 439.826 186.459C439.541 186.459 439.328 186.541 439.188 186.705C439.047 186.869 438.977 187.066 438.977 187.297ZM446.184 187.297C446.184 187.523 446.254 187.717 446.395 187.877C446.539 188.033 446.752 188.111 447.033 188.111C447.311 188.111 447.523 188.033 447.672 187.877C447.82 187.721 447.895 187.527 447.895 187.297C447.895 187.062 447.82 186.865 447.672 186.705C447.527 186.541 447.314 186.459 447.033 186.459C446.748 186.459 446.535 186.541 446.395 186.705C446.254 186.869 446.184 187.066 446.184 187.297ZM455.459 184.596V184.537C455.459 183.939 455.412 183.402 455.318 182.926C455.229 182.445 455.113 182 454.973 181.59C454.828 181.164 454.66 180.781 454.469 180.441C454.277 180.102 454.072 179.793 453.854 179.516C453.643 179.246 453.428 179.016 453.209 178.824C452.99 178.633 452.783 178.482 452.588 178.373L452.359 179.035C452.488 179.141 452.621 179.27 452.758 179.422C452.895 179.57 453.027 179.744 453.156 179.943C453.324 180.197 453.488 180.496 453.648 180.84C453.809 181.18 453.945 181.564 454.059 181.994C454.137 182.295 454.207 182.66 454.27 183.09C454.336 183.52 454.369 183.998 454.369 184.525V184.607C454.369 185.072 454.344 185.51 454.293 185.92C454.246 186.326 454.178 186.705 454.088 187.057C454.002 187.436 453.891 187.783 453.754 188.1C453.621 188.42 453.482 188.707 453.338 188.961C453.186 189.211 453.025 189.432 452.857 189.623C452.689 189.814 452.523 189.971 452.359 190.092L452.588 190.754C452.783 190.645 452.988 190.494 453.203 190.303C453.422 190.115 453.639 189.885 453.854 189.611C454.064 189.342 454.266 189.033 454.457 188.686C454.652 188.342 454.824 187.959 454.973 187.537C455.121 187.119 455.238 186.664 455.324 186.172C455.414 185.68 455.459 185.154 455.459 184.596Z" fill="black"/>
<g filter="url(#filter2_d)">
<rect x="543" y="106" width="201" height="55" rx="4" fill="white"/>
<rect x="543.5" y="106.5" width="200" height="54" rx="3.5" stroke="#BBBBBB"/>
</g>
<path d="M571.02 138H572.104V133.453C572.178 133.316 572.264 133.191 572.361 133.078C572.463 132.965 572.572 132.865 572.689 132.779C572.834 132.682 572.992 132.605 573.164 132.551C573.336 132.492 573.521 132.463 573.721 132.463C573.951 132.463 574.154 132.49 574.33 132.545C574.51 132.6 574.662 132.688 574.787 132.809C574.908 132.93 575 133.088 575.062 133.283C575.125 133.479 575.156 133.717 575.156 133.998V138H576.24V133.975C576.24 133.553 576.188 133.189 576.082 132.885C575.98 132.576 575.834 132.322 575.643 132.123C575.451 131.924 575.219 131.777 574.945 131.684C574.676 131.59 574.375 131.543 574.043 131.543C573.797 131.547 573.562 131.584 573.34 131.654C573.121 131.721 572.918 131.816 572.73 131.941C572.605 132.023 572.486 132.121 572.373 132.234C572.264 132.344 572.162 132.465 572.068 132.598L571.992 131.66H571.02V138ZM581.027 138.117C581.645 138.117 582.162 137.994 582.58 137.748C583.002 137.498 583.318 137.213 583.529 136.893L582.867 136.377C582.668 136.635 582.418 136.842 582.117 136.998C581.816 137.154 581.473 137.232 581.086 137.232C580.793 137.232 580.525 137.178 580.283 137.068C580.041 136.959 579.834 136.809 579.662 136.617C579.494 136.438 579.361 136.23 579.264 135.996C579.17 135.762 579.109 135.49 579.082 135.182V135.141H583.611V134.654C583.611 134.213 583.555 133.803 583.441 133.424C583.332 133.045 583.164 132.715 582.938 132.434C582.711 132.156 582.426 131.939 582.082 131.783C581.742 131.623 581.344 131.543 580.887 131.543C580.523 131.543 580.168 131.617 579.82 131.766C579.477 131.914 579.17 132.127 578.9 132.404C578.627 132.686 578.408 133.029 578.244 133.436C578.08 133.838 577.998 134.295 577.998 134.807V135.053C577.998 135.494 578.072 135.902 578.221 136.277C578.369 136.652 578.576 136.977 578.842 137.25C579.107 137.523 579.426 137.736 579.797 137.889C580.172 138.041 580.582 138.117 581.027 138.117ZM580.887 132.434C581.164 132.434 581.402 132.484 581.602 132.586C581.805 132.688 581.973 132.82 582.105 132.984C582.238 133.148 582.342 133.344 582.416 133.57C582.49 133.793 582.527 134.002 582.527 134.197V134.25H579.117C579.16 133.957 579.234 133.699 579.34 133.477C579.449 133.25 579.582 133.059 579.738 132.902C579.895 132.75 580.07 132.635 580.266 132.557C580.461 132.475 580.668 132.434 580.887 132.434ZM588.053 134.01L586.377 131.66H585.123L587.484 134.795L585.059 138H586.324L588.076 135.586L589.828 138H591.082L588.656 134.795L591.018 131.66H589.746L588.053 134.01ZM595.207 130.125H594.117V131.66H592.453V132.498H594.117V135.943C594.117 136.334 594.168 136.668 594.27 136.945C594.375 137.219 594.518 137.441 594.697 137.613C594.877 137.789 595.088 137.918 595.33 138C595.576 138.078 595.84 138.117 596.121 138.117C596.289 138.117 596.457 138.109 596.625 138.094C596.797 138.078 596.959 138.055 597.111 138.023C597.264 137.996 597.404 137.963 597.533 137.924C597.662 137.881 597.771 137.832 597.861 137.777L597.709 137.01C597.643 137.025 597.557 137.045 597.451 137.068C597.35 137.088 597.24 137.107 597.123 137.127C597.002 137.146 596.879 137.164 596.754 137.18C596.629 137.191 596.508 137.197 596.391 137.197C596.23 137.197 596.078 137.178 595.934 137.139C595.793 137.1 595.668 137.031 595.559 136.934C595.449 136.84 595.363 136.713 595.301 136.553C595.238 136.393 595.207 136.189 595.207 135.943V132.498H597.621V131.66H595.207V130.125ZM605.109 138.885V138H599.736V138.885H605.109ZM611.268 136.318C611.268 136.42 611.248 136.516 611.209 136.605C611.17 136.695 611.113 136.777 611.039 136.852C610.918 136.973 610.75 137.068 610.535 137.139C610.32 137.205 610.068 137.238 609.779 137.238C609.596 137.238 609.41 137.219 609.223 137.18C609.035 137.141 608.865 137.074 608.713 136.98C608.557 136.887 608.426 136.764 608.32 136.611C608.219 136.459 608.16 136.271 608.145 136.049H607.061C607.061 136.318 607.121 136.578 607.242 136.828C607.367 137.078 607.547 137.297 607.781 137.484C608.012 137.676 608.295 137.83 608.631 137.947C608.967 138.061 609.35 138.117 609.779 138.117C610.154 138.117 610.5 138.072 610.816 137.982C611.133 137.893 611.404 137.766 611.631 137.602C611.857 137.438 612.033 137.24 612.158 137.01C612.287 136.779 612.352 136.523 612.352 136.242C612.352 135.98 612.295 135.75 612.182 135.551C612.072 135.352 611.912 135.176 611.701 135.023C611.49 134.875 611.23 134.748 610.922 134.643C610.613 134.533 610.264 134.438 609.873 134.355C609.576 134.297 609.33 134.236 609.135 134.174C608.943 134.111 608.791 134.041 608.678 133.963C608.561 133.885 608.479 133.797 608.432 133.699C608.385 133.602 608.361 133.49 608.361 133.365C608.361 133.244 608.391 133.127 608.449 133.014C608.508 132.9 608.596 132.801 608.713 132.715C608.826 132.629 608.969 132.561 609.141 132.51C609.316 132.459 609.52 132.434 609.75 132.434C609.973 132.434 610.172 132.465 610.348 132.527C610.527 132.59 610.68 132.672 610.805 132.773C610.93 132.875 611.027 132.992 611.098 133.125C611.168 133.254 611.203 133.387 611.203 133.523H612.287C612.287 133.246 612.227 132.988 612.105 132.75C611.988 132.508 611.82 132.297 611.602 132.117C611.383 131.938 611.117 131.797 610.805 131.695C610.492 131.594 610.141 131.543 609.75 131.543C609.387 131.543 609.053 131.592 608.748 131.689C608.447 131.787 608.188 131.92 607.969 132.088C607.75 132.256 607.58 132.453 607.459 132.68C607.338 132.902 607.277 133.143 607.277 133.4C607.277 133.662 607.336 133.893 607.453 134.092C607.57 134.287 607.736 134.457 607.951 134.602C608.162 134.75 608.416 134.877 608.713 134.982C609.014 135.088 609.346 135.178 609.709 135.252C610.006 135.311 610.254 135.377 610.453 135.451C610.652 135.521 610.812 135.6 610.934 135.686C611.055 135.771 611.141 135.867 611.191 135.973C611.242 136.074 611.268 136.189 611.268 136.318ZM616.828 130.125H615.738V131.66H614.074V132.498H615.738V135.943C615.738 136.334 615.789 136.668 615.891 136.945C615.996 137.219 616.139 137.441 616.318 137.613C616.498 137.789 616.709 137.918 616.951 138C617.197 138.078 617.461 138.117 617.742 138.117C617.91 138.117 618.078 138.109 618.246 138.094C618.418 138.078 618.58 138.055 618.732 138.023C618.885 137.996 619.025 137.963 619.154 137.924C619.283 137.881 619.393 137.832 619.482 137.777L619.33 137.01C619.264 137.025 619.178 137.045 619.072 137.068C618.971 137.088 618.861 137.107 618.744 137.127C618.623 137.146 618.5 137.164 618.375 137.18C618.25 137.191 618.129 137.197 618.012 137.197C617.852 137.197 617.699 137.178 617.555 137.139C617.414 137.1 617.289 137.031 617.18 136.934C617.07 136.84 616.984 136.713 616.922 136.553C616.859 136.393 616.828 136.189 616.828 135.943V132.498H619.242V131.66H616.828V130.125ZM625.635 138H626.766V137.906C626.695 137.73 626.641 137.525 626.602 137.291C626.562 137.053 626.543 136.828 626.543 136.617V133.67C626.543 133.314 626.479 133.004 626.35 132.738C626.221 132.473 626.045 132.25 625.822 132.07C625.596 131.895 625.328 131.764 625.02 131.678C624.711 131.588 624.377 131.543 624.018 131.543C623.623 131.543 623.27 131.598 622.957 131.707C622.648 131.816 622.387 131.959 622.172 132.135C621.953 132.314 621.785 132.516 621.668 132.738C621.555 132.961 621.496 133.188 621.492 133.418H622.582C622.582 133.285 622.613 133.158 622.676 133.037C622.742 132.912 622.834 132.805 622.951 132.715C623.068 132.625 623.211 132.553 623.379 132.498C623.551 132.443 623.744 132.416 623.959 132.416C624.189 132.416 624.396 132.445 624.58 132.504C624.768 132.562 624.926 132.645 625.055 132.75C625.184 132.859 625.283 132.99 625.354 133.143C625.424 133.295 625.459 133.467 625.459 133.658V134.156H624.275C623.834 134.156 623.434 134.199 623.074 134.285C622.719 134.371 622.414 134.5 622.16 134.672C621.906 134.848 621.709 135.066 621.568 135.328C621.432 135.59 621.363 135.895 621.363 136.242C621.363 136.508 621.414 136.756 621.516 136.986C621.621 137.213 621.77 137.408 621.961 137.572C622.148 137.74 622.377 137.873 622.646 137.971C622.92 138.068 623.225 138.117 623.561 138.117C623.768 138.117 623.963 138.096 624.146 138.053C624.33 138.01 624.504 137.951 624.668 137.877C624.828 137.803 624.975 137.717 625.107 137.619C625.244 137.521 625.367 137.418 625.477 137.309C625.488 137.441 625.506 137.57 625.529 137.695C625.557 137.816 625.592 137.918 625.635 138ZM623.719 137.174C623.508 137.174 623.322 137.146 623.162 137.092C623.002 137.037 622.869 136.961 622.764 136.863C622.658 136.77 622.578 136.656 622.523 136.523C622.473 136.391 622.447 136.246 622.447 136.09C622.447 135.926 622.477 135.779 622.535 135.65C622.598 135.521 622.688 135.41 622.805 135.316C622.969 135.184 623.189 135.086 623.467 135.023C623.748 134.957 624.076 134.924 624.451 134.924H625.459V136.207C625.396 136.332 625.311 136.453 625.201 136.57C625.092 136.684 624.963 136.785 624.814 136.875C624.662 136.965 624.494 137.037 624.311 137.092C624.127 137.146 623.93 137.174 623.719 137.174ZM631.242 130.125H630.152V131.66H628.488V132.498H630.152V135.943C630.152 136.334 630.203 136.668 630.305 136.945C630.41 137.219 630.553 137.441 630.732 137.613C630.912 137.789 631.123 137.918 631.365 138C631.611 138.078 631.875 138.117 632.156 138.117C632.324 138.117 632.492 138.109 632.66 138.094C632.832 138.078 632.994 138.055 633.146 138.023C633.299 137.996 633.439 137.963 633.568 137.924C633.697 137.881 633.807 137.832 633.896 137.777L633.744 137.01C633.678 137.025 633.592 137.045 633.486 137.068C633.385 137.088 633.275 137.107 633.158 137.127C633.037 137.146 632.914 137.164 632.789 137.18C632.664 137.191 632.543 137.197 632.426 137.197C632.266 137.197 632.113 137.178 631.969 137.139C631.828 137.1 631.703 137.031 631.594 136.934C631.484 136.84 631.398 136.713 631.336 136.553C631.273 136.393 631.242 136.189 631.242 135.943V132.498H633.656V131.66H631.242V130.125ZM638.684 138.117C639.301 138.117 639.818 137.994 640.236 137.748C640.658 137.498 640.975 137.213 641.186 136.893L640.523 136.377C640.324 136.635 640.074 136.842 639.773 136.998C639.473 137.154 639.129 137.232 638.742 137.232C638.449 137.232 638.182 137.178 637.939 137.068C637.697 136.959 637.49 136.809 637.318 136.617C637.15 136.438 637.018 136.23 636.92 135.996C636.826 135.762 636.766 135.49 636.738 135.182V135.141H641.268V134.654C641.268 134.213 641.211 133.803 641.098 133.424C640.988 133.045 640.82 132.715 640.594 132.434C640.367 132.156 640.082 131.939 639.738 131.783C639.398 131.623 639 131.543 638.543 131.543C638.18 131.543 637.824 131.617 637.477 131.766C637.133 131.914 636.826 132.127 636.557 132.404C636.283 132.686 636.064 133.029 635.9 133.436C635.736 133.838 635.654 134.295 635.654 134.807V135.053C635.654 135.494 635.729 135.902 635.877 136.277C636.025 136.652 636.232 136.977 636.498 137.25C636.764 137.523 637.082 137.736 637.453 137.889C637.828 138.041 638.238 138.117 638.684 138.117ZM638.543 132.434C638.82 132.434 639.059 132.484 639.258 132.586C639.461 132.688 639.629 132.82 639.762 132.984C639.895 133.148 639.998 133.344 640.072 133.57C640.146 133.793 640.184 134.002 640.184 134.197V134.25H636.773C636.816 133.957 636.891 133.699 636.996 133.477C637.105 133.25 637.238 133.059 637.395 132.902C637.551 132.75 637.727 132.635 637.922 132.557C638.117 132.475 638.324 132.434 638.543 132.434Z" fill="black"/>
<g filter="url(#filter3_d)">
<rect x="37" y="145" width="171" height="55" rx="4" fill="white"/>
<rect x="37.5" y="145.5" width="170" height="54" rx="3.5" stroke="#BBBBBB"/>
</g>
<path d="M66.1855 179H67.3164V178.906C67.2461 178.73 67.1914 178.525 67.1523 178.291C67.1133 178.053 67.0938 177.828 67.0938 177.617V174.67C67.0938 174.314 67.0293 174.004 66.9004 173.738C66.7715 173.473 66.5957 173.25 66.373 173.07C66.1465 172.895 65.8789 172.764 65.5703 172.678C65.2617 172.588 64.9277 172.543 64.5684 172.543C64.1738 172.543 63.8203 172.598 63.5078 172.707C63.1992 172.816 62.9375 172.959 62.7227 173.135C62.5039 173.314 62.3359 173.516 62.2188 173.738C62.1055 173.961 62.0469 174.188 62.043 174.418H63.1328C63.1328 174.285 63.1641 174.158 63.2266 174.037C63.293 173.912 63.3848 173.805 63.502 173.715C63.6191 173.625 63.7617 173.553 63.9297 173.498C64.1016 173.443 64.2949 173.416 64.5098 173.416C64.7402 173.416 64.9473 173.445 65.1309 173.504C65.3184 173.562 65.4766 173.645 65.6055 173.75C65.7344 173.859 65.834 173.99 65.9043 174.143C65.9746 174.295 66.0098 174.467 66.0098 174.658V175.156H64.8262C64.3848 175.156 63.9844 175.199 63.625 175.285C63.2695 175.371 62.9648 175.5 62.7109 175.672C62.457 175.848 62.2598 176.066 62.1191 176.328C61.9824 176.59 61.9141 176.895 61.9141 177.242C61.9141 177.508 61.9648 177.756 62.0664 177.986C62.1719 178.213 62.3203 178.408 62.5117 178.572C62.6992 178.74 62.9277 178.873 63.1973 178.971C63.4707 179.068 63.7754 179.117 64.1113 179.117C64.3184 179.117 64.5137 179.096 64.6973 179.053C64.8809 179.01 65.0547 178.951 65.2188 178.877C65.3789 178.803 65.5254 178.717 65.6582 178.619C65.7949 178.521 65.918 178.418 66.0273 178.309C66.0391 178.441 66.0566 178.57 66.0801 178.695C66.1074 178.816 66.1426 178.918 66.1855 179ZM64.2695 178.174C64.0586 178.174 63.873 178.146 63.7129 178.092C63.5527 178.037 63.4199 177.961 63.3145 177.863C63.209 177.77 63.1289 177.656 63.0742 177.523C63.0234 177.391 62.998 177.246 62.998 177.09C62.998 176.926 63.0273 176.779 63.0859 176.65C63.1484 176.521 63.2383 176.41 63.3555 176.316C63.5195 176.184 63.7402 176.086 64.0176 176.023C64.2988 175.957 64.627 175.924 65.002 175.924H66.0098V177.207C65.9473 177.332 65.8613 177.453 65.752 177.57C65.6426 177.684 65.5137 177.785 65.3652 177.875C65.2129 177.965 65.0449 178.037 64.8613 178.092C64.6777 178.146 64.4805 178.174 64.2695 178.174ZM71.9277 178.238C71.5879 178.238 71.3027 178.172 71.0723 178.039C70.8457 177.902 70.6641 177.725 70.5273 177.506C70.3867 177.291 70.2852 177.049 70.2227 176.779C70.1641 176.506 70.1348 176.23 70.1348 175.953V175.707C70.1348 175.434 70.1641 175.162 70.2227 174.893C70.2852 174.623 70.3867 174.379 70.5273 174.16C70.668 173.945 70.8516 173.771 71.0781 173.639C71.3086 173.502 71.5918 173.434 71.9277 173.434C72.1465 173.434 72.3496 173.471 72.5371 173.545C72.7285 173.619 72.8926 173.721 73.0293 173.85C73.166 173.979 73.2734 174.129 73.3516 174.301C73.4336 174.469 73.4766 174.648 73.4805 174.84H74.5059C74.5059 174.52 74.4414 174.219 74.3125 173.938C74.1836 173.656 74.0059 173.412 73.7793 173.205C73.5488 173.002 73.2754 172.842 72.959 172.725C72.6465 172.604 72.3027 172.543 71.9277 172.543C71.4473 172.543 71.0273 172.629 70.668 172.801C70.3086 172.973 70.0098 173.203 69.7715 173.492C69.5293 173.785 69.3477 174.123 69.2266 174.506C69.1055 174.889 69.0449 175.289 69.0449 175.707V175.953C69.0449 176.375 69.1055 176.777 69.2266 177.16C69.3477 177.539 69.5293 177.873 69.7715 178.162C70.0098 178.455 70.3086 178.688 70.668 178.859C71.0273 179.031 71.4473 179.117 71.9277 179.117C72.2637 179.117 72.5859 179.061 72.8945 178.947C73.2031 178.83 73.4766 178.674 73.7148 178.479C73.9531 178.287 74.1426 178.064 74.2832 177.811C74.4277 177.553 74.502 177.283 74.5059 177.002H73.4805C73.4766 177.178 73.4297 177.342 73.3398 177.494C73.2539 177.643 73.1387 177.771 72.9941 177.881C72.8496 177.994 72.6836 178.082 72.4961 178.145C72.3125 178.207 72.123 178.238 71.9277 178.238ZM79 171.125H77.9102V172.66H76.2461V173.498H77.9102V176.943C77.9102 177.334 77.9609 177.668 78.0625 177.945C78.168 178.219 78.3105 178.441 78.4902 178.613C78.6699 178.789 78.8809 178.918 79.123 179C79.3691 179.078 79.6328 179.117 79.9141 179.117C80.082 179.117 80.25 179.109 80.418 179.094C80.5898 179.078 80.752 179.055 80.9043 179.023C81.0566 178.996 81.1973 178.963 81.3262 178.924C81.4551 178.881 81.5645 178.832 81.6543 178.777L81.502 178.01C81.4355 178.025 81.3496 178.045 81.2441 178.068C81.1426 178.088 81.0332 178.107 80.916 178.127C80.7949 178.146 80.6719 178.164 80.5469 178.18C80.4219 178.191 80.3008 178.197 80.1836 178.197C80.0234 178.197 79.8711 178.178 79.7266 178.139C79.5859 178.1 79.4609 178.031 79.3516 177.934C79.2422 177.84 79.1562 177.713 79.0938 177.553C79.0312 177.393 79 177.189 79 176.943V173.498H81.4141V172.66H79V171.125ZM83.8105 172.66V173.604H85.9668V178.062H83.8105V179H89.1191V178.062H87.0508V172.66H83.8105ZM85.8262 170.996C85.8262 171.172 85.8789 171.318 85.9844 171.436C86.0938 171.553 86.2578 171.611 86.4766 171.611C86.6914 171.611 86.8535 171.553 86.9629 171.436C87.0723 171.318 87.127 171.172 87.127 170.996C87.127 170.898 87.1113 170.809 87.0801 170.727C87.0488 170.645 87.002 170.576 86.9395 170.521C86.8887 170.471 86.8242 170.432 86.7461 170.404C86.668 170.373 86.5781 170.357 86.4766 170.357C86.375 170.357 86.2832 170.373 86.2012 170.404C86.123 170.432 86.0586 170.471 86.0078 170.521C85.9453 170.58 85.8984 170.65 85.8672 170.732C85.8398 170.814 85.8262 170.902 85.8262 170.996ZM90.543 175.771V175.9C90.543 176.357 90.6094 176.781 90.7422 177.172C90.875 177.562 91.0664 177.902 91.3164 178.191C91.5625 178.48 91.8633 178.707 92.2188 178.871C92.5781 179.035 92.9824 179.117 93.4316 179.117C93.877 179.117 94.2773 179.035 94.6328 178.871C94.9883 178.707 95.291 178.48 95.541 178.191C95.7871 177.902 95.9766 177.562 96.1094 177.172C96.2422 176.781 96.3086 176.357 96.3086 175.9V175.771C96.3086 175.314 96.2422 174.891 96.1094 174.5C95.9766 174.105 95.7871 173.764 95.541 173.475C95.291 173.186 94.9863 172.959 94.627 172.795C94.2715 172.627 93.8691 172.543 93.4199 172.543C92.9746 172.543 92.5742 172.627 92.2188 172.795C91.8633 172.959 91.5625 173.186 91.3164 173.475C91.0664 173.764 90.875 174.105 90.7422 174.5C90.6094 174.891 90.543 175.314 90.543 175.771ZM91.627 175.9V175.771C91.627 175.463 91.6641 175.168 91.7383 174.887C91.8125 174.602 91.9258 174.352 92.0781 174.137C92.2266 173.922 92.4121 173.752 92.6348 173.627C92.8574 173.498 93.1191 173.434 93.4199 173.434C93.7207 173.434 93.9824 173.498 94.2051 173.627C94.4316 173.752 94.6211 173.922 94.7734 174.137C94.9219 174.352 95.0332 174.602 95.1074 174.887C95.1855 175.168 95.2246 175.463 95.2246 175.771V175.9C95.2246 176.213 95.1875 176.512 95.1133 176.797C95.0391 177.078 94.9277 177.326 94.7793 177.541C94.627 177.756 94.4375 177.926 94.2109 178.051C93.9883 178.176 93.7285 178.238 93.4316 178.238C93.1309 178.238 92.8672 178.176 92.6406 178.051C92.4141 177.926 92.2266 177.756 92.0781 177.541C91.9258 177.326 91.8125 177.078 91.7383 176.797C91.6641 176.512 91.627 176.213 91.627 175.9ZM98.0547 179H99.1387V174.453C99.2129 174.316 99.2988 174.191 99.3965 174.078C99.498 173.965 99.6074 173.865 99.7246 173.779C99.8691 173.682 100.027 173.605 100.199 173.551C100.371 173.492 100.557 173.463 100.756 173.463C100.986 173.463 101.189 173.49 101.365 173.545C101.545 173.6 101.697 173.688 101.822 173.809C101.943 173.93 102.035 174.088 102.098 174.283C102.16 174.479 102.191 174.717 102.191 174.998V179H103.275V174.975C103.275 174.553 103.223 174.189 103.117 173.885C103.016 173.576 102.869 173.322 102.678 173.123C102.486 172.924 102.254 172.777 101.98 172.684C101.711 172.59 101.41 172.543 101.078 172.543C100.832 172.547 100.598 172.584 100.375 172.654C100.156 172.721 99.9531 172.816 99.7656 172.941C99.6406 173.023 99.5215 173.121 99.4082 173.234C99.2988 173.344 99.1973 173.465 99.1035 173.598L99.0273 172.66H98.0547V179Z" fill="black"/>
<path d="M645.473 137.057C645.473 137.357 645.574 137.609 645.777 137.812C645.98 138.016 646.256 138.117 646.604 138.117C646.947 138.117 647.221 138.018 647.424 137.818C647.631 137.615 647.734 137.361 647.734 137.057C647.734 136.752 647.633 136.496 647.43 136.289C647.23 136.082 646.955 135.979 646.604 135.979C646.248 135.979 645.971 136.084 645.771 136.295C645.572 136.502 645.473 136.756 645.473 137.057ZM650.869 134.783V134.906C650.869 135.367 650.928 135.795 651.045 136.189C651.166 136.58 651.338 136.918 651.561 137.203C651.783 137.488 652.051 137.713 652.363 137.877C652.68 138.037 653.035 138.117 653.43 138.117C653.629 138.117 653.814 138.096 653.986 138.053C654.162 138.01 654.322 137.949 654.467 137.871C654.564 137.816 654.656 137.754 654.742 137.684C654.828 137.613 654.91 137.535 654.988 137.449V137.812C654.988 138.027 654.957 138.221 654.895 138.393C654.836 138.564 654.75 138.709 654.637 138.826C654.512 138.955 654.355 139.053 654.168 139.119C653.984 139.186 653.773 139.219 653.535 139.219C653.387 139.219 653.242 139.203 653.102 139.172C652.965 139.145 652.832 139.102 652.703 139.043C652.57 138.984 652.443 138.908 652.322 138.814C652.201 138.725 652.088 138.619 651.982 138.498L651.25 139.488C651.387 139.664 651.551 139.814 651.742 139.939C651.934 140.068 652.137 140.174 652.352 140.256C652.566 140.338 652.783 140.398 653.002 140.438C653.221 140.477 653.426 140.496 653.617 140.496C654.062 140.496 654.469 140.436 654.836 140.314C655.207 140.197 655.525 140.023 655.791 139.793C656.053 139.562 656.256 139.279 656.4 138.943C656.549 138.607 656.623 138.225 656.623 137.795V131.66H655.141L655.076 132.264C654.998 132.166 654.912 132.078 654.818 132C654.725 131.918 654.623 131.848 654.514 131.789C654.369 131.707 654.207 131.646 654.027 131.607C653.852 131.564 653.656 131.543 653.441 131.543C653.043 131.543 652.686 131.621 652.369 131.777C652.053 131.934 651.783 132.154 651.561 132.439C651.338 132.725 651.166 133.066 651.045 133.465C650.928 133.863 650.869 134.303 650.869 134.783ZM652.504 134.906V134.783C652.504 134.518 652.531 134.27 652.586 134.039C652.641 133.805 652.725 133.6 652.838 133.424C652.947 133.252 653.086 133.117 653.254 133.02C653.422 132.918 653.621 132.867 653.852 132.867C653.977 132.867 654.092 132.879 654.197 132.902C654.307 132.926 654.406 132.959 654.496 133.002C654.602 133.053 654.695 133.119 654.777 133.201C654.859 133.283 654.93 133.379 654.988 133.488V136.172C654.934 136.27 654.869 136.357 654.795 136.436C654.721 136.514 654.635 136.58 654.537 136.635C654.443 136.686 654.338 136.725 654.221 136.752C654.107 136.779 653.98 136.793 653.84 136.793C653.609 136.793 653.41 136.744 653.242 136.646C653.074 136.549 652.936 136.414 652.826 136.242C652.717 136.074 652.635 135.877 652.58 135.65C652.529 135.42 652.504 135.172 652.504 134.906ZM662.793 131.543C662.367 131.543 661.975 131.646 661.615 131.854C661.256 132.057 660.947 132.338 660.689 132.697L660.678 132.557L660.613 131.66H659.096V138H660.725V134.191C660.799 134.012 660.893 133.855 661.006 133.723C661.119 133.59 661.256 133.48 661.416 133.395C661.549 133.32 661.699 133.266 661.867 133.23C662.039 133.191 662.23 133.172 662.441 133.172C662.645 133.172 662.857 133.186 663.08 133.213C663.307 133.236 663.527 133.273 663.742 133.324L663.982 131.701C663.854 131.662 663.684 131.627 663.473 131.596C663.266 131.561 663.039 131.543 662.793 131.543ZM669.408 138H671.061V137.9C670.979 137.74 670.916 137.549 670.873 137.326C670.83 137.104 670.809 136.822 670.809 136.482V133.764C670.809 133.396 670.74 133.074 670.604 132.797C670.467 132.516 670.277 132.283 670.035 132.1C669.793 131.916 669.506 131.777 669.174 131.684C668.846 131.59 668.49 131.543 668.107 131.543C667.682 131.543 667.303 131.598 666.971 131.707C666.643 131.812 666.365 131.957 666.139 132.141C665.908 132.324 665.732 132.537 665.611 132.779C665.494 133.021 665.436 133.277 665.436 133.547H667.064C667.064 133.434 667.08 133.33 667.111 133.236C667.146 133.143 667.199 133.062 667.27 132.996C667.348 132.922 667.449 132.865 667.574 132.826C667.699 132.783 667.848 132.762 668.02 132.762C668.215 132.762 668.385 132.787 668.529 132.838C668.678 132.885 668.801 132.953 668.898 133.043C668.992 133.129 669.062 133.232 669.109 133.354C669.156 133.471 669.18 133.604 669.18 133.752V134.127H668.271C667.803 134.127 667.387 134.17 667.023 134.256C666.664 134.338 666.361 134.459 666.115 134.619C665.842 134.795 665.637 135.02 665.5 135.293C665.363 135.562 665.295 135.873 665.295 136.225C665.295 136.498 665.35 136.752 665.459 136.986C665.568 137.217 665.721 137.416 665.916 137.584C666.111 137.752 666.344 137.883 666.613 137.977C666.887 138.07 667.186 138.117 667.51 138.117C667.709 138.117 667.895 138.098 668.066 138.059C668.238 138.023 668.396 137.973 668.541 137.906C668.682 137.844 668.811 137.77 668.928 137.684C669.045 137.598 669.148 137.506 669.238 137.408C669.258 137.521 669.281 137.629 669.309 137.73C669.336 137.832 669.369 137.922 669.408 138ZM667.855 136.857C667.703 136.857 667.568 136.84 667.451 136.805C667.338 136.766 667.242 136.715 667.164 136.652C667.086 136.586 667.025 136.506 666.982 136.412C666.943 136.314 666.924 136.209 666.924 136.096C666.924 135.951 666.951 135.818 667.006 135.697C667.061 135.572 667.145 135.465 667.258 135.375C667.371 135.289 667.518 135.223 667.697 135.176C667.877 135.125 668.094 135.1 668.348 135.1H669.18V136.189C669.133 136.271 669.068 136.354 668.986 136.436C668.904 136.514 668.807 136.584 668.693 136.646C668.58 136.709 668.453 136.76 668.312 136.799C668.172 136.838 668.02 136.857 667.855 136.857ZM672.484 134.783V134.906C672.484 135.367 672.541 135.795 672.654 136.189C672.768 136.58 672.932 136.918 673.146 137.203C673.357 137.488 673.615 137.713 673.92 137.877C674.229 138.037 674.576 138.117 674.963 138.117C675.318 138.117 675.631 138.049 675.9 137.912C676.17 137.775 676.404 137.584 676.604 137.338L676.686 138H678.156V129H676.521V132.229C676.326 132.01 676.102 131.842 675.848 131.725C675.598 131.604 675.307 131.543 674.975 131.543C674.58 131.543 674.229 131.621 673.92 131.777C673.615 131.934 673.355 132.154 673.141 132.439C672.926 132.725 672.762 133.066 672.648 133.465C672.539 133.863 672.484 134.303 672.484 134.783ZM674.113 134.906V134.783C674.113 134.518 674.137 134.27 674.184 134.039C674.23 133.805 674.305 133.6 674.406 133.424C674.508 133.252 674.639 133.117 674.799 133.02C674.963 132.918 675.16 132.867 675.391 132.867C675.668 132.867 675.898 132.928 676.082 133.049C676.266 133.166 676.412 133.332 676.521 133.547V136.113C676.412 136.324 676.264 136.49 676.076 136.611C675.893 136.732 675.66 136.793 675.379 136.793C675.148 136.793 674.953 136.744 674.793 136.646C674.633 136.549 674.502 136.414 674.4 136.242C674.299 136.074 674.225 135.877 674.178 135.65C674.135 135.42 674.113 135.172 674.113 134.906Z" fill="#EE4C2C"/>
<path d="M99.4727 102.057C99.4727 102.357 99.5742 102.609 99.7773 102.812C99.9805 103.016 100.256 103.117 100.604 103.117C100.947 103.117 101.221 103.018 101.424 102.818C101.631 102.615 101.734 102.361 101.734 102.057C101.734 101.752 101.633 101.496 101.43 101.289C101.23 101.082 100.955 100.979 100.604 100.979C100.248 100.979 99.9707 101.084 99.7715 101.295C99.5723 101.502 99.4727 101.756 99.4727 102.057ZM104.869 99.7832V99.9062C104.869 100.367 104.928 100.795 105.045 101.189C105.166 101.58 105.338 101.918 105.561 102.203C105.783 102.488 106.051 102.713 106.363 102.877C106.68 103.037 107.035 103.117 107.43 103.117C107.629 103.117 107.814 103.096 107.986 103.053C108.162 103.01 108.322 102.949 108.467 102.871C108.564 102.816 108.656 102.754 108.742 102.684C108.828 102.613 108.91 102.535 108.988 102.449V102.812C108.988 103.027 108.957 103.221 108.895 103.393C108.836 103.564 108.75 103.709 108.637 103.826C108.512 103.955 108.355 104.053 108.168 104.119C107.984 104.186 107.773 104.219 107.535 104.219C107.387 104.219 107.242 104.203 107.102 104.172C106.965 104.145 106.832 104.102 106.703 104.043C106.57 103.984 106.443 103.908 106.322 103.814C106.201 103.725 106.088 103.619 105.982 103.498L105.25 104.488C105.387 104.664 105.551 104.814 105.742 104.939C105.934 105.068 106.137 105.174 106.352 105.256C106.566 105.338 106.783 105.398 107.002 105.438C107.221 105.477 107.426 105.496 107.617 105.496C108.062 105.496 108.469 105.436 108.836 105.314C109.207 105.197 109.525 105.023 109.791 104.793C110.053 104.562 110.256 104.279 110.4 103.943C110.549 103.607 110.623 103.225 110.623 102.795V96.6602H109.141L109.076 97.2637C108.998 97.166 108.912 97.0781 108.818 97C108.725 96.918 108.623 96.8477 108.514 96.7891C108.369 96.707 108.207 96.6465 108.027 96.6074C107.852 96.5645 107.656 96.543 107.441 96.543C107.043 96.543 106.686 96.6211 106.369 96.7773C106.053 96.9336 105.783 97.1543 105.561 97.4395C105.338 97.7246 105.166 98.0664 105.045 98.4648C104.928 98.8633 104.869 99.3027 104.869 99.7832ZM106.504 99.9062V99.7832C106.504 99.5176 106.531 99.2695 106.586 99.0391C106.641 98.8047 106.725 98.5996 106.838 98.4238C106.947 98.252 107.086 98.1172 107.254 98.0195C107.422 97.918 107.621 97.8672 107.852 97.8672C107.977 97.8672 108.092 97.8789 108.197 97.9023C108.307 97.9258 108.406 97.959 108.496 98.002C108.602 98.0527 108.695 98.1191 108.777 98.2012C108.859 98.2832 108.93 98.3789 108.988 98.4883V101.172C108.934 101.27 108.869 101.357 108.795 101.436C108.721 101.514 108.635 101.58 108.537 101.635C108.443 101.686 108.338 101.725 108.221 101.752C108.107 101.779 107.98 101.793 107.84 101.793C107.609 101.793 107.41 101.744 107.242 101.646C107.074 101.549 106.936 101.414 106.826 101.242C106.717 101.074 106.635 100.877 106.58 100.65C106.529 100.42 106.504 100.172 106.504 99.9062ZM116.793 96.543C116.367 96.543 115.975 96.6465 115.615 96.8535C115.256 97.0566 114.947 97.3379 114.689 97.6973L114.678 97.5566L114.613 96.6602H113.096V103H114.725V99.1914C114.799 99.0117 114.893 98.8555 115.006 98.7227C115.119 98.5898 115.256 98.4805 115.416 98.3945C115.549 98.3203 115.699 98.2656 115.867 98.2305C116.039 98.1914 116.23 98.1719 116.441 98.1719C116.645 98.1719 116.857 98.1855 117.08 98.2129C117.307 98.2363 117.527 98.2734 117.742 98.3242L117.982 96.7012C117.854 96.6621 117.684 96.627 117.473 96.5957C117.266 96.5605 117.039 96.543 116.793 96.543ZM123.408 103H125.061V102.9C124.979 102.74 124.916 102.549 124.873 102.326C124.83 102.104 124.809 101.822 124.809 101.482V98.7637C124.809 98.3965 124.74 98.0742 124.604 97.7969C124.467 97.5156 124.277 97.2832 124.035 97.0996C123.793 96.916 123.506 96.7773 123.174 96.6836C122.846 96.5898 122.49 96.543 122.107 96.543C121.682 96.543 121.303 96.5977 120.971 96.707C120.643 96.8125 120.365 96.957 120.139 97.1406C119.908 97.3242 119.732 97.5371 119.611 97.7793C119.494 98.0215 119.436 98.2773 119.436 98.5469H121.064C121.064 98.4336 121.08 98.3301 121.111 98.2363C121.146 98.1426 121.199 98.0625 121.27 97.9961C121.348 97.9219 121.449 97.8652 121.574 97.8262C121.699 97.7832 121.848 97.7617 122.02 97.7617C122.215 97.7617 122.385 97.7871 122.529 97.8379C122.678 97.8848 122.801 97.9531 122.898 98.043C122.992 98.1289 123.062 98.2324 123.109 98.3535C123.156 98.4707 123.18 98.6035 123.18 98.752V99.127H122.271C121.803 99.127 121.387 99.1699 121.023 99.2559C120.664 99.3379 120.361 99.459 120.115 99.6191C119.842 99.7949 119.637 100.02 119.5 100.293C119.363 100.562 119.295 100.873 119.295 101.225C119.295 101.498 119.35 101.752 119.459 101.986C119.568 102.217 119.721 102.416 119.916 102.584C120.111 102.752 120.344 102.883 120.613 102.977C120.887 103.07 121.186 103.117 121.51 103.117C121.709 103.117 121.895 103.098 122.066 103.059C122.238 103.023 122.396 102.973 122.541 102.906C122.682 102.844 122.811 102.77 122.928 102.684C123.045 102.598 123.148 102.506 123.238 102.408C123.258 102.521 123.281 102.629 123.309 102.73C123.336 102.832 123.369 102.922 123.408 103ZM121.855 101.857C121.703 101.857 121.568 101.84 121.451 101.805C121.338 101.766 121.242 101.715 121.164 101.652C121.086 101.586 121.025 101.506 120.982 101.412C120.943 101.314 120.924 101.209 120.924 101.096C120.924 100.951 120.951 100.818 121.006 100.697C121.061 100.572 121.145 100.465 121.258 100.375C121.371 100.289 121.518 100.223 121.697 100.176C121.877 100.125 122.094 100.1 122.348 100.1H123.18V101.189C123.133 101.271 123.068 101.354 122.986 101.436C122.904 101.514 122.807 101.584 122.693 101.646C122.58 101.709 122.453 101.76 122.312 101.799C122.172 101.838 122.02 101.857 121.855 101.857ZM126.484 99.7832V99.9062C126.484 100.367 126.541 100.795 126.654 101.189C126.768 101.58 126.932 101.918 127.146 102.203C127.357 102.488 127.615 102.713 127.92 102.877C128.229 103.037 128.576 103.117 128.963 103.117C129.318 103.117 129.631 103.049 129.9 102.912C130.17 102.775 130.404 102.584 130.604 102.338L130.686 103H132.156V94H130.521V97.2285C130.326 97.0098 130.102 96.8418 129.848 96.7246C129.598 96.6035 129.307 96.543 128.975 96.543C128.58 96.543 128.229 96.6211 127.92 96.7773C127.615 96.9336 127.355 97.1543 127.141 97.4395C126.926 97.7246 126.762 98.0664 126.648 98.4648C126.539 98.8633 126.484 99.3027 126.484 99.7832ZM128.113 99.9062V99.7832C128.113 99.5176 128.137 99.2695 128.184 99.0391C128.23 98.8047 128.305 98.5996 128.406 98.4238C128.508 98.252 128.639 98.1172 128.799 98.0195C128.963 97.918 129.16 97.8672 129.391 97.8672C129.668 97.8672 129.898 97.9277 130.082 98.0488C130.266 98.166 130.412 98.332 130.521 98.5469V101.113C130.412 101.324 130.264 101.49 130.076 101.611C129.893 101.732 129.66 101.793 129.379 101.793C129.148 101.793 128.953 101.744 128.793 101.646C128.633 101.549 128.502 101.414 128.4 101.242C128.299 101.074 128.225 100.877 128.178 100.65C128.135 100.42 128.113 100.172 128.113 99.9062Z" fill="#EE4C2C"/>
<path d="M106.473 178.057C106.473 178.357 106.574 178.609 106.777 178.812C106.98 179.016 107.256 179.117 107.604 179.117C107.947 179.117 108.221 179.018 108.424 178.818C108.631 178.615 108.734 178.361 108.734 178.057C108.734 177.752 108.633 177.496 108.43 177.289C108.23 177.082 107.955 176.979 107.604 176.979C107.248 176.979 106.971 177.084 106.771 177.295C106.572 177.502 106.473 177.756 106.473 178.057ZM111.869 175.783V175.906C111.869 176.367 111.928 176.795 112.045 177.189C112.166 177.58 112.338 177.918 112.561 178.203C112.783 178.488 113.051 178.713 113.363 178.877C113.68 179.037 114.035 179.117 114.43 179.117C114.629 179.117 114.814 179.096 114.986 179.053C115.162 179.01 115.322 178.949 115.467 178.871C115.564 178.816 115.656 178.754 115.742 178.684C115.828 178.613 115.91 178.535 115.988 178.449V178.812C115.988 179.027 115.957 179.221 115.895 179.393C115.836 179.564 115.75 179.709 115.637 179.826C115.512 179.955 115.355 180.053 115.168 180.119C114.984 180.186 114.773 180.219 114.535 180.219C114.387 180.219 114.242 180.203 114.102 180.172C113.965 180.145 113.832 180.102 113.703 180.043C113.57 179.984 113.443 179.908 113.322 179.814C113.201 179.725 113.088 179.619 112.982 179.498L112.25 180.488C112.387 180.664 112.551 180.814 112.742 180.939C112.934 181.068 113.137 181.174 113.352 181.256C113.566 181.338 113.783 181.398 114.002 181.438C114.221 181.477 114.426 181.496 114.617 181.496C115.062 181.496 115.469 181.436 115.836 181.314C116.207 181.197 116.525 181.023 116.791 180.793C117.053 180.562 117.256 180.279 117.4 179.943C117.549 179.607 117.623 179.225 117.623 178.795V172.66H116.141L116.076 173.264C115.998 173.166 115.912 173.078 115.818 173C115.725 172.918 115.623 172.848 115.514 172.789C115.369 172.707 115.207 172.646 115.027 172.607C114.852 172.564 114.656 172.543 114.441 172.543C114.043 172.543 113.686 172.621 113.369 172.777C113.053 172.934 112.783 173.154 112.561 173.439C112.338 173.725 112.166 174.066 112.045 174.465C111.928 174.863 111.869 175.303 111.869 175.783ZM113.504 175.906V175.783C113.504 175.518 113.531 175.27 113.586 175.039C113.641 174.805 113.725 174.6 113.838 174.424C113.947 174.252 114.086 174.117 114.254 174.02C114.422 173.918 114.621 173.867 114.852 173.867C114.977 173.867 115.092 173.879 115.197 173.902C115.307 173.926 115.406 173.959 115.496 174.002C115.602 174.053 115.695 174.119 115.777 174.201C115.859 174.283 115.93 174.379 115.988 174.488V177.172C115.934 177.27 115.869 177.357 115.795 177.436C115.721 177.514 115.635 177.58 115.537 177.635C115.443 177.686 115.338 177.725 115.221 177.752C115.107 177.779 114.98 177.793 114.84 177.793C114.609 177.793 114.41 177.744 114.242 177.646C114.074 177.549 113.936 177.414 113.826 177.242C113.717 177.074 113.635 176.877 113.58 176.65C113.529 176.42 113.504 176.172 113.504 175.906ZM123.793 172.543C123.367 172.543 122.975 172.646 122.615 172.854C122.256 173.057 121.947 173.338 121.689 173.697L121.678 173.557L121.613 172.66H120.096V179H121.725V175.191C121.799 175.012 121.893 174.855 122.006 174.723C122.119 174.59 122.256 174.48 122.416 174.395C122.549 174.32 122.699 174.266 122.867 174.23C123.039 174.191 123.23 174.172 123.441 174.172C123.645 174.172 123.857 174.186 124.08 174.213C124.307 174.236 124.527 174.273 124.742 174.324L124.982 172.701C124.854 172.662 124.684 172.627 124.473 172.596C124.266 172.561 124.039 172.543 123.793 172.543ZM130.408 179H132.061V178.9C131.979 178.74 131.916 178.549 131.873 178.326C131.83 178.104 131.809 177.822 131.809 177.482V174.764C131.809 174.396 131.74 174.074 131.604 173.797C131.467 173.516 131.277 173.283 131.035 173.1C130.793 172.916 130.506 172.777 130.174 172.684C129.846 172.59 129.49 172.543 129.107 172.543C128.682 172.543 128.303 172.598 127.971 172.707C127.643 172.812 127.365 172.957 127.139 173.141C126.908 173.324 126.732 173.537 126.611 173.779C126.494 174.021 126.436 174.277 126.436 174.547H128.064C128.064 174.434 128.08 174.33 128.111 174.236C128.146 174.143 128.199 174.062 128.27 173.996C128.348 173.922 128.449 173.865 128.574 173.826C128.699 173.783 128.848 173.762 129.02 173.762C129.215 173.762 129.385 173.787 129.529 173.838C129.678 173.885 129.801 173.953 129.898 174.043C129.992 174.129 130.062 174.232 130.109 174.354C130.156 174.471 130.18 174.604 130.18 174.752V175.127H129.271C128.803 175.127 128.387 175.17 128.023 175.256C127.664 175.338 127.361 175.459 127.115 175.619C126.842 175.795 126.637 176.02 126.5 176.293C126.363 176.562 126.295 176.873 126.295 177.225C126.295 177.498 126.35 177.752 126.459 177.986C126.568 178.217 126.721 178.416 126.916 178.584C127.111 178.752 127.344 178.883 127.613 178.977C127.887 179.07 128.186 179.117 128.51 179.117C128.709 179.117 128.895 179.098 129.066 179.059C129.238 179.023 129.396 178.973 129.541 178.906C129.682 178.844 129.811 178.77 129.928 178.684C130.045 178.598 130.148 178.506 130.238 178.408C130.258 178.521 130.281 178.629 130.309 178.73C130.336 178.832 130.369 178.922 130.408 179ZM128.855 177.857C128.703 177.857 128.568 177.84 128.451 177.805C128.338 177.766 128.242 177.715 128.164 177.652C128.086 177.586 128.025 177.506 127.982 177.412C127.943 177.314 127.924 177.209 127.924 177.096C127.924 176.951 127.951 176.818 128.006 176.697C128.061 176.572 128.145 176.465 128.258 176.375C128.371 176.289 128.518 176.223 128.697 176.176C128.877 176.125 129.094 176.1 129.348 176.1H130.18V177.189C130.133 177.271 130.068 177.354 129.986 177.436C129.904 177.514 129.807 177.584 129.693 177.646C129.58 177.709 129.453 177.76 129.312 177.799C129.172 177.838 129.02 177.857 128.855 177.857ZM133.484 175.783V175.906C133.484 176.367 133.541 176.795 133.654 177.189C133.768 177.58 133.932 177.918 134.146 178.203C134.357 178.488 134.615 178.713 134.92 178.877C135.229 179.037 135.576 179.117 135.963 179.117C136.318 179.117 136.631 179.049 136.9 178.912C137.17 178.775 137.404 178.584 137.604 178.338L137.686 179H139.156V170H137.521V173.229C137.326 173.01 137.102 172.842 136.848 172.725C136.598 172.604 136.307 172.543 135.975 172.543C135.58 172.543 135.229 172.621 134.92 172.777C134.615 172.934 134.355 173.154 134.141 173.439C133.926 173.725 133.762 174.066 133.648 174.465C133.539 174.863 133.484 175.303 133.484 175.783ZM135.113 175.906V175.783C135.113 175.518 135.137 175.27 135.184 175.039C135.23 174.805 135.305 174.6 135.406 174.424C135.508 174.252 135.639 174.117 135.799 174.02C135.963 173.918 136.16 173.867 136.391 173.867C136.668 173.867 136.898 173.928 137.082 174.049C137.266 174.166 137.412 174.332 137.521 174.547V177.113C137.412 177.324 137.264 177.49 137.076 177.611C136.893 177.732 136.66 177.793 136.379 177.793C136.148 177.793 135.953 177.744 135.793 177.646C135.633 177.549 135.502 177.414 135.4 177.242C135.299 177.074 135.225 176.877 135.178 176.65C135.135 176.42 135.113 176.172 135.113 175.906Z" fill="#EE4C2C"/>
<path d="M225.08 97.1535C224.613 97.6615 224.646 98.4522 225.154 98.9198L233.431 106.538C233.939 107.006 234.73 106.973 235.198 106.465C235.665 105.957 235.632 105.166 235.124 104.699L227.766 97.9267L234.538 90.5687C235.006 90.0608 234.973 89.27 234.465 88.8025C233.957 88.335 233.166 88.3678 232.699 88.8757L225.08 97.1535ZM318.271 114.251C296.563 115.151 285.423 110.372 273.763 105.548C261.966 100.668 249.683 95.7667 225.948 96.7511L226.052 99.2489C249.277 98.2857 261.175 103.046 272.808 107.858C284.579 112.728 296.121 117.672 318.375 116.749L318.271 114.251Z" fill="#EE4C2C"/>
<path d="M225.08 175.346C224.613 174.839 224.646 174.048 225.154 173.58L233.431 165.962C233.939 165.494 234.73 165.527 235.198 166.035C235.665 166.543 235.632 167.334 235.124 167.801L227.766 174.573L234.538 181.931C235.006 182.439 234.973 183.23 234.465 183.698C233.957 184.165 233.166 184.132 232.699 183.624L225.08 175.346ZM318.271 158.249C296.563 157.349 285.423 162.128 273.763 166.952C261.966 171.832 249.683 176.733 225.948 175.749L226.052 173.251C249.277 174.214 261.175 169.454 272.808 164.642C284.579 159.772 296.121 154.828 318.375 155.751L318.271 158.249Z" fill="#EE4C2C"/>
<path d="M493.116 135.884C492.628 135.396 492.628 134.604 493.116 134.116L501.071 126.161C501.559 125.673 502.351 125.673 502.839 126.161C503.327 126.649 503.327 127.441 502.839 127.929L495.768 135L502.839 142.071C503.327 142.559 503.327 143.351 502.839 143.839C502.351 144.327 501.559 144.327 501.071 143.839L493.116 135.884ZM525 136.25H494V133.75H525V136.25Z" fill="#EE4C2C"/>
<path d="M72.644 42.8252V47H71.2378V36.3359H75.1709C76.3379 36.3359 77.251 36.6338 77.9102 37.2295C78.5742 37.8252 78.9062 38.6138 78.9062 39.5952C78.9062 40.6304 78.5815 41.4287 77.9321 41.9902C77.2876 42.5469 76.3623 42.8252 75.1562 42.8252H72.644ZM72.644 41.6753H75.1709C75.9229 41.6753 76.499 41.4995 76.8994 41.1479C77.2998 40.7915 77.5 40.2788 77.5 39.6099C77.5 38.9751 77.2998 38.4673 76.8994 38.0864C76.499 37.7056 75.9497 37.5078 75.2515 37.4932H72.644V41.6753ZM83.1982 45.0151L85.0439 39.0752H86.4941L83.3081 48.2231C82.8149 49.5415 82.0312 50.2007 80.957 50.2007L80.7007 50.1787L80.1953 50.0835V48.9849L80.5615 49.0142C81.0205 49.0142 81.377 48.9214 81.6309 48.7358C81.8896 48.5503 82.1021 48.2109 82.2681 47.7178L82.5684 46.9121L79.7412 39.0752H81.2207L83.1982 45.0151ZM95.2905 37.4932H91.8628V47H90.4639V37.4932H87.0435V36.3359H95.2905V37.4932ZM95.5688 42.9644C95.5688 42.188 95.7202 41.4897 96.0229 40.8696C96.3306 40.2495 96.7554 39.771 97.2974 39.4341C97.8442 39.0972 98.4668 38.9287 99.165 38.9287C100.244 38.9287 101.116 39.3022 101.78 40.0493C102.449 40.7964 102.783 41.79 102.783 43.0303V43.1255C102.783 43.897 102.634 44.5903 102.336 45.2056C102.043 45.8159 101.621 46.292 101.069 46.6338C100.522 46.9756 99.8926 47.1465 99.1797 47.1465C98.1055 47.1465 97.2339 46.7729 96.5649 46.0259C95.9009 45.2788 95.5688 44.29 95.5688 43.0596V42.9644ZM96.9312 43.1255C96.9312 44.0044 97.1338 44.71 97.5391 45.2422C97.9492 45.7744 98.4961 46.0405 99.1797 46.0405C99.8682 46.0405 100.415 45.772 100.82 45.2349C101.226 44.6929 101.428 43.936 101.428 42.9644C101.428 42.0952 101.221 41.3921 100.806 40.855C100.396 40.313 99.8486 40.042 99.165 40.042C98.4961 40.042 97.9565 40.3081 97.5464 40.8403C97.1362 41.3726 96.9312 42.1343 96.9312 43.1255ZM108.313 40.291C108.108 40.2568 107.886 40.2397 107.646 40.2397C106.758 40.2397 106.155 40.6182 105.837 41.375V47H104.482V39.0752H105.801L105.823 39.9907C106.267 39.2827 106.897 38.9287 107.712 38.9287C107.976 38.9287 108.176 38.9629 108.313 39.0312V40.291ZM112.598 46.0405C113.081 46.0405 113.503 45.894 113.865 45.6011C114.226 45.3081 114.426 44.9419 114.465 44.5024H115.747C115.723 44.9565 115.566 45.3887 115.278 45.7988C114.99 46.209 114.604 46.5361 114.121 46.7803C113.643 47.0244 113.135 47.1465 112.598 47.1465C111.519 47.1465 110.659 46.7876 110.02 46.0698C109.385 45.3472 109.067 44.3608 109.067 43.1108V42.8838C109.067 42.1123 109.209 41.4263 109.492 40.8257C109.775 40.2251 110.181 39.7588 110.708 39.4268C111.24 39.0947 111.868 38.9287 112.59 38.9287C113.479 38.9287 114.216 39.1948 114.802 39.7271C115.393 40.2593 115.708 40.9502 115.747 41.7998H114.465C114.426 41.2871 114.231 40.8672 113.879 40.54C113.533 40.208 113.103 40.042 112.59 40.042C111.902 40.042 111.367 40.291 110.986 40.7891C110.61 41.2822 110.422 41.9976 110.422 42.9351V43.1914C110.422 44.1045 110.61 44.8076 110.986 45.3008C111.362 45.7939 111.899 46.0405 112.598 46.0405ZM118.625 40.0347C119.226 39.2974 120.007 38.9287 120.969 38.9287C122.644 38.9287 123.489 39.8735 123.503 41.7632V47H122.148V41.7559C122.144 41.1846 122.012 40.7622 121.753 40.4888C121.499 40.2153 121.101 40.0786 120.559 40.0786C120.12 40.0786 119.734 40.1958 119.402 40.4302C119.07 40.6646 118.811 40.9722 118.625 41.353V47H117.271V35.75H118.625V40.0347ZM132.996 45.1323L136.042 36.3359H137.581L133.625 47H132.38L128.433 36.3359H129.963L132.996 45.1323ZM141.77 47.1465C140.696 47.1465 139.822 46.7949 139.148 46.0918C138.474 45.3838 138.137 44.439 138.137 43.2573V43.0083C138.137 42.2222 138.286 41.5215 138.584 40.9062C138.887 40.2861 139.307 39.8027 139.844 39.4561C140.386 39.1045 140.972 38.9287 141.602 38.9287C142.632 38.9287 143.433 39.2681 144.004 39.9468C144.575 40.6255 144.861 41.5972 144.861 42.8618V43.4258H139.492C139.512 44.207 139.739 44.8394 140.173 45.3228C140.613 45.8013 141.169 46.0405 141.843 46.0405C142.322 46.0405 142.727 45.9429 143.059 45.7476C143.391 45.5522 143.682 45.2935 143.931 44.9712L144.758 45.6157C144.094 46.6362 143.098 47.1465 141.77 47.1465ZM141.602 40.042C141.055 40.042 140.596 40.2422 140.225 40.6426C139.854 41.0381 139.624 41.5947 139.536 42.3125H143.506V42.21C143.467 41.5215 143.281 40.9893 142.949 40.6133C142.617 40.2324 142.168 40.042 141.602 40.042ZM149.614 46.0405C150.098 46.0405 150.52 45.894 150.881 45.6011C151.243 45.3081 151.443 44.9419 151.482 44.5024H152.764C152.739 44.9565 152.583 45.3887 152.295 45.7988C152.007 46.209 151.621 46.5361 151.138 46.7803C150.659 47.0244 150.151 47.1465 149.614 47.1465C148.535 47.1465 147.676 46.7876 147.036 46.0698C146.401 45.3472 146.084 44.3608 146.084 43.1108V42.8838C146.084 42.1123 146.226 41.4263 146.509 40.8257C146.792 40.2251 147.197 39.7588 147.725 39.4268C148.257 39.0947 148.884 38.9287 149.607 38.9287C150.496 38.9287 151.233 39.1948 151.819 39.7271C152.41 40.2593 152.725 40.9502 152.764 41.7998H151.482C151.443 41.2871 151.248 40.8672 150.896 40.54C150.549 40.208 150.12 40.042 149.607 40.042C148.918 40.042 148.384 40.291 148.003 40.7891C147.627 41.2822 147.439 41.9976 147.439 42.9351V43.1914C147.439 44.1045 147.627 44.8076 148.003 45.3008C148.379 45.7939 148.916 46.0405 149.614 46.0405ZM156.125 37.1562V39.0752H157.605V40.1226H156.125V45.0371C156.125 45.3545 156.191 45.5938 156.323 45.7549C156.455 45.9111 156.68 45.9893 156.997 45.9893C157.153 45.9893 157.368 45.96 157.642 45.9014V47C157.285 47.0977 156.938 47.1465 156.602 47.1465C155.996 47.1465 155.54 46.9634 155.232 46.5972C154.924 46.231 154.771 45.7109 154.771 45.0371V40.1226H153.328V39.0752H154.771V37.1562H156.125ZM158.689 42.9644C158.689 42.188 158.84 41.4897 159.143 40.8696C159.451 40.2495 159.875 39.771 160.417 39.4341C160.964 39.0972 161.587 38.9287 162.285 38.9287C163.364 38.9287 164.236 39.3022 164.9 40.0493C165.569 40.7964 165.903 41.79 165.903 43.0303V43.1255C165.903 43.897 165.754 44.5903 165.457 45.2056C165.164 45.8159 164.741 46.292 164.189 46.6338C163.643 46.9756 163.013 47.1465 162.3 47.1465C161.226 47.1465 160.354 46.7729 159.685 46.0259C159.021 45.2788 158.689 44.29 158.689 43.0596V42.9644ZM160.051 43.1255C160.051 44.0044 160.254 44.71 160.659 45.2422C161.069 45.7744 161.616 46.0405 162.3 46.0405C162.988 46.0405 163.535 45.772 163.94 45.2349C164.346 44.6929 164.548 43.936 164.548 42.9644C164.548 42.0952 164.341 41.3921 163.926 40.855C163.516 40.313 162.969 40.042 162.285 40.042C161.616 40.042 161.077 40.3081 160.667 40.8403C160.256 41.3726 160.051 42.1343 160.051 43.1255ZM171.433 40.291C171.228 40.2568 171.006 40.2397 170.767 40.2397C169.878 40.2397 169.275 40.6182 168.958 41.375V47H167.603V39.0752H168.921L168.943 39.9907C169.387 39.2827 170.017 38.9287 170.833 38.9287C171.096 38.9287 171.296 38.9629 171.433 39.0312V40.291ZM177.3 44.8979C177.3 44.5317 177.161 44.2485 176.882 44.0483C176.609 43.8433 176.128 43.6675 175.439 43.521C174.756 43.3745 174.211 43.1987 173.806 42.9937C173.406 42.7886 173.108 42.5444 172.913 42.2612C172.722 41.978 172.627 41.6411 172.627 41.2505C172.627 40.6011 172.9 40.0518 173.447 39.6025C173.999 39.1533 174.702 38.9287 175.557 38.9287C176.455 38.9287 177.183 39.1606 177.739 39.6245C178.301 40.0884 178.582 40.6816 178.582 41.4043H177.219C177.219 41.0332 177.061 40.7134 176.743 40.4448C176.431 40.1763 176.035 40.042 175.557 40.042C175.063 40.042 174.678 40.1494 174.399 40.3643C174.121 40.5791 173.982 40.8599 173.982 41.2065C173.982 41.5337 174.111 41.7803 174.37 41.9463C174.629 42.1123 175.095 42.271 175.769 42.4224C176.448 42.5737 176.997 42.7544 177.417 42.9644C177.837 43.1743 178.147 43.4282 178.347 43.7261C178.552 44.019 178.655 44.3779 178.655 44.8027C178.655 45.5107 178.372 46.0796 177.805 46.5093C177.239 46.9341 176.504 47.1465 175.601 47.1465C174.966 47.1465 174.404 47.0342 173.916 46.8096C173.428 46.585 173.044 46.2725 172.766 45.8721C172.493 45.4668 172.356 45.0298 172.356 44.561H173.711C173.735 45.0151 173.916 45.3765 174.253 45.645C174.595 45.9087 175.044 46.0405 175.601 46.0405C176.113 46.0405 176.523 45.938 176.831 45.7329C177.144 45.5229 177.3 45.2446 177.3 44.8979ZM180.376 46.2896C180.376 46.0552 180.444 45.8599 180.581 45.7036C180.723 45.5474 180.933 45.4692 181.211 45.4692C181.489 45.4692 181.699 45.5474 181.841 45.7036C181.987 45.8599 182.061 46.0552 182.061 46.2896C182.061 46.5142 181.987 46.7021 181.841 46.8535C181.699 47.0049 181.489 47.0806 181.211 47.0806C180.933 47.0806 180.723 47.0049 180.581 46.8535C180.444 46.7021 180.376 46.5142 180.376 46.2896ZM180.383 39.8223C180.383 39.5879 180.452 39.3926 180.588 39.2363C180.73 39.0801 180.94 39.002 181.218 39.002C181.497 39.002 181.707 39.0801 181.848 39.2363C181.995 39.3926 182.068 39.5879 182.068 39.8223C182.068 40.0469 181.995 40.2349 181.848 40.3862C181.707 40.5376 181.497 40.6133 181.218 40.6133C180.94 40.6133 180.73 40.5376 180.588 40.3862C180.452 40.2349 180.383 40.0469 180.383 39.8223Z" fill="black"/>
<path d="M389.153 83.33C389.153 82.85 389.015 82.466 388.739 82.178C388.475 81.878 388.115 81.728 387.659 81.728C387.287 81.728 386.885 81.836 386.453 82.052V89H384.491V79.982H386.237L386.471 80.09C386.975 79.922 387.497 79.838 388.037 79.838C388.637 79.838 389.159 79.946 389.603 80.162C390.083 80.378 390.455 80.702 390.719 81.134C390.995 81.566 391.133 82.112 391.133 82.772V89H389.153V83.33ZM394.823 78.344C394.535 78.344 394.283 78.236 394.067 78.02C393.851 77.804 393.743 77.552 393.743 77.264C393.743 76.988 393.851 76.748 394.067 76.544C394.283 76.328 394.535 76.22 394.823 76.22C395.099 76.22 395.339 76.328 395.543 76.544C395.759 76.748 395.867 76.988 395.867 77.264C395.867 77.552 395.759 77.804 395.543 78.02C395.339 78.236 395.099 78.344 394.823 78.344ZM393.779 79.982H395.759V89H393.779V79.982ZM407.969 83.528C407.969 82.88 407.879 82.412 407.699 82.124C407.531 81.836 407.255 81.692 406.871 81.692C406.595 81.692 406.223 81.776 405.755 81.944L405.449 82.07C405.473 82.142 405.491 82.226 405.503 82.322C405.515 82.418 405.521 82.508 405.521 82.592V89H403.541V83.582C403.541 82.982 403.403 82.52 403.127 82.196C402.851 81.872 402.479 81.71 402.011 81.71C401.591 81.71 401.153 81.842 400.697 82.106V89H398.717V79.982H400.463L400.697 80.108C401.093 79.928 401.543 79.838 402.047 79.838C402.455 79.838 402.851 79.91 403.235 80.054C403.619 80.186 403.955 80.402 404.243 80.702C404.411 80.606 404.663 80.474 404.999 80.306C405.707 79.982 406.391 79.82 407.051 79.82C407.903 79.82 408.599 80.084 409.139 80.612C409.679 81.128 409.949 81.848 409.949 82.772V89H407.969V83.528ZM418.508 86.174C418.508 86.786 418.382 87.302 418.13 87.722C417.878 88.142 417.536 88.46 417.104 88.676C416.72 88.868 416.33 89.006 415.934 89.09C415.55 89.174 415.136 89.216 414.692 89.216C414.248 89.216 413.636 89.174 412.856 89.09L411.866 89V76.4H413.846V80C414.374 79.88 414.854 79.82 415.286 79.82C415.898 79.82 416.462 79.94 416.978 80.18C417.998 80.648 418.508 81.512 418.508 82.772V86.174ZM416.546 83.33C416.546 82.79 416.396 82.406 416.096 82.178C415.796 81.938 415.43 81.818 414.998 81.818C414.758 81.818 414.53 81.848 414.314 81.908C414.098 81.968 413.942 82.04 413.846 82.124V87.272C414.05 87.332 414.296 87.362 414.584 87.362C415.088 87.362 415.538 87.272 415.934 87.092C416.342 86.9 416.546 86.606 416.546 86.21V83.33ZM420.444 76.4H422.424V89H420.444V76.4ZM426.484 86.318C426.484 86.654 426.574 86.918 426.754 87.11C426.946 87.29 427.222 87.38 427.582 87.38C428.134 87.38 428.872 87.14 429.796 86.66L430.516 88.37C430.084 88.646 429.592 88.856 429.04 89C428.488 89.144 427.936 89.216 427.384 89.216C426.496 89.216 425.788 89 425.26 88.568C424.744 88.124 424.486 87.464 424.486 86.588V82.898C424.486 81.926 424.786 81.17 425.386 80.63C425.998 80.09 426.802 79.82 427.798 79.82C428.794 79.82 429.568 80.09 430.12 80.63C430.684 81.158 430.966 81.896 430.966 82.844V85.58L426.484 85.814V86.318ZM428.968 82.88C428.968 82.52 428.854 82.244 428.626 82.052C428.398 81.86 428.116 81.764 427.78 81.764C427.324 81.764 426.994 81.884 426.79 82.124C426.586 82.364 426.484 82.628 426.484 82.916V83.996L428.968 83.834V82.88Z" fill="black"/>
<mask id="mask0" mask-type="alpha" maskUnits="userSpaceOnUse" x="373" y="105" width="64" height="57">
<rect x="373" y="143.885" width="22.4303" height="7.88092" fill="black"/>
<rect x="414.541" y="153.881" width="22.4587" height="7.88092" fill="black"/>
<rect x="373" y="138.982" width="22.4587" height="2.78899" fill="black"/>
<rect width="22.4767" height="2.80959" transform="matrix(0.990268 -0.139173 -0.139173 -0.990268 414.672 136.834)" fill="black"/>
<rect width="22.4767" height="2.80959" transform="matrix(0.816138 -0.577858 -0.577858 -0.816138 413.703 132.469)" fill="black"/>
<rect width="22.4767" height="2.80959" transform="matrix(0.4602 -0.887815 -0.887815 -0.4602 410.594 128.928)" fill="black"/>
<rect x="395.274" y="136.834" width="22.4767" height="2.80959" transform="rotate(-172 395.274 136.834)" fill="black"/>
<rect x="396.243" y="132.469" width="22.4767" height="2.80959" transform="rotate(-144.7 396.243 132.469)" fill="black"/>
<rect x="399.353" y="128.928" width="22.4767" height="2.80959" transform="rotate(-117.4 399.353 128.928)" fill="black"/>
<rect x="406.248" y="105" width="22.4587" height="2.78899" transform="rotate(90 406.248 105)" fill="black"/>
<rect width="22.4587" height="2.78899" transform="matrix(-1 0 0 1 436.927 138.982)" fill="black"/>
<rect width="22.4587" height="2.86239" transform="matrix(-1 0 0 1 436.927 143.899)" fill="black"/>
<rect width="22.4587" height="2.86239" transform="matrix(-1 0 0 1 436.927 148.89)" fill="black"/>
</mask>
<g mask="url(#mask0)">
<rect x="360.616" y="100.41" width="88.249" height="67.6374" fill="url(#paint0_linear)"/>
</g>
<g clip-path="url(#clip0)">
<path d="M54.907 37.264L53.0232 39.1201C56.1163 42.1677 56.1163 47.0715 53.0232 50.0733C49.9302 53.121 44.9535 53.121 41.907 50.0733C38.8139 47.0257 38.8139 42.1219 41.907 39.1201L46.8139 34.2851L47.5116 33.5976V29.9542L40.1163 37.2411C36 41.297 36 47.8506 40.1163 51.9065C44.2325 55.9624 50.8837 55.9624 54.9302 51.9065C59.0232 47.8506 59.0232 41.3428 54.907 37.264Z" fill="#EE4C2C"/>
<path d="M51.2093 36.8286C51.967 36.8286 52.5813 36.2233 52.5813 35.4766C52.5813 34.7299 51.967 34.1246 51.2093 34.1246C50.4515 34.1246 49.8372 34.7299 49.8372 35.4766C49.8372 36.2233 50.4515 36.8286 51.2093 36.8286Z" fill="#EE4C2C"/>
</g>
<path d="M582.644 78.8252V83H581.238V72.3359H585.171C586.338 72.3359 587.251 72.6338 587.91 73.2295C588.574 73.8252 588.906 74.6138 588.906 75.5952C588.906 76.6304 588.582 77.4287 587.932 77.9902C587.288 78.5469 586.362 78.8252 585.156 78.8252H582.644ZM582.644 77.6753H585.171C585.923 77.6753 586.499 77.4995 586.899 77.1479C587.3 76.7915 587.5 76.2788 587.5 75.6099C587.5 74.9751 587.3 74.4673 586.899 74.0864C586.499 73.7056 585.95 73.5078 585.251 73.4932H582.644V77.6753ZM593.198 81.0151L595.044 75.0752H596.494L593.308 84.2231C592.815 85.5415 592.031 86.2007 590.957 86.2007L590.701 86.1787L590.195 86.0835V84.9849L590.562 85.0142C591.021 85.0142 591.377 84.9214 591.631 84.7358C591.89 84.5503 592.102 84.2109 592.268 83.7178L592.568 82.9121L589.741 75.0752H591.221L593.198 81.0151ZM605.291 73.4932H601.863V83H600.464V73.4932H597.043V72.3359H605.291V73.4932ZM605.569 78.9644C605.569 78.188 605.72 77.4897 606.023 76.8696C606.331 76.2495 606.755 75.771 607.297 75.4341C607.844 75.0972 608.467 74.9287 609.165 74.9287C610.244 74.9287 611.116 75.3022 611.78 76.0493C612.449 76.7964 612.783 77.79 612.783 79.0303V79.1255C612.783 79.897 612.634 80.5903 612.336 81.2056C612.043 81.8159 611.621 82.292 611.069 82.6338C610.522 82.9756 609.893 83.1465 609.18 83.1465C608.105 83.1465 607.234 82.7729 606.565 82.0259C605.901 81.2788 605.569 80.29 605.569 79.0596V78.9644ZM606.931 79.1255C606.931 80.0044 607.134 80.71 607.539 81.2422C607.949 81.7744 608.496 82.0405 609.18 82.0405C609.868 82.0405 610.415 81.772 610.82 81.2349C611.226 80.6929 611.428 79.936 611.428 78.9644C611.428 78.0952 611.221 77.3921 610.806 76.855C610.396 76.313 609.849 76.042 609.165 76.042C608.496 76.042 607.957 76.3081 607.546 76.8403C607.136 77.3726 606.931 78.1343 606.931 79.1255ZM618.313 76.291C618.108 76.2568 617.886 76.2397 617.646 76.2397C616.758 76.2397 616.155 76.6182 615.837 77.375V83H614.482V75.0752H615.801L615.823 75.9907C616.267 75.2827 616.897 74.9287 617.712 74.9287C617.976 74.9287 618.176 74.9629 618.313 75.0312V76.291ZM622.598 82.0405C623.081 82.0405 623.503 81.894 623.865 81.6011C624.226 81.3081 624.426 80.9419 624.465 80.5024H625.747C625.723 80.9565 625.566 81.3887 625.278 81.7988C624.99 82.209 624.604 82.5361 624.121 82.7803C623.643 83.0244 623.135 83.1465 622.598 83.1465C621.519 83.1465 620.659 82.7876 620.02 82.0698C619.385 81.3472 619.067 80.3608 619.067 79.1108V78.8838C619.067 78.1123 619.209 77.4263 619.492 76.8257C619.775 76.2251 620.181 75.7588 620.708 75.4268C621.24 75.0947 621.868 74.9287 622.59 74.9287C623.479 74.9287 624.216 75.1948 624.802 75.7271C625.393 76.2593 625.708 76.9502 625.747 77.7998H624.465C624.426 77.2871 624.231 76.8672 623.879 76.54C623.533 76.208 623.103 76.042 622.59 76.042C621.902 76.042 621.367 76.291 620.986 76.7891C620.61 77.2822 620.422 77.9976 620.422 78.9351V79.1914C620.422 80.1045 620.61 80.8076 620.986 81.3008C621.362 81.7939 621.899 82.0405 622.598 82.0405ZM628.625 76.0347C629.226 75.2974 630.007 74.9287 630.969 74.9287C632.644 74.9287 633.489 75.8735 633.503 77.7632V83H632.148V77.7559C632.144 77.1846 632.012 76.7622 631.753 76.4888C631.499 76.2153 631.101 76.0786 630.559 76.0786C630.12 76.0786 629.734 76.1958 629.402 76.4302C629.07 76.6646 628.811 76.9722 628.625 77.353V83H627.271V71.75H628.625V76.0347ZM642.996 81.1323L646.042 72.3359H647.581L643.625 83H642.38L638.433 72.3359H639.963L642.996 81.1323ZM651.77 83.1465C650.696 83.1465 649.822 82.7949 649.148 82.0918C648.474 81.3838 648.137 80.439 648.137 79.2573V79.0083C648.137 78.2222 648.286 77.5215 648.584 76.9062C648.887 76.2861 649.307 75.8027 649.844 75.4561C650.386 75.1045 650.972 74.9287 651.602 74.9287C652.632 74.9287 653.433 75.2681 654.004 75.9468C654.575 76.6255 654.861 77.5972 654.861 78.8618V79.4258H649.492C649.512 80.207 649.739 80.8394 650.173 81.3228C650.613 81.8013 651.169 82.0405 651.843 82.0405C652.322 82.0405 652.727 81.9429 653.059 81.7476C653.391 81.5522 653.682 81.2935 653.931 80.9712L654.758 81.6157C654.094 82.6362 653.098 83.1465 651.77 83.1465ZM651.602 76.042C651.055 76.042 650.596 76.2422 650.225 76.6426C649.854 77.0381 649.624 77.5947 649.536 78.3125H653.506V78.21C653.467 77.5215 653.281 76.9893 652.949 76.6133C652.617 76.2324 652.168 76.042 651.602 76.042ZM659.614 82.0405C660.098 82.0405 660.52 81.894 660.881 81.6011C661.243 81.3081 661.443 80.9419 661.482 80.5024H662.764C662.739 80.9565 662.583 81.3887 662.295 81.7988C662.007 82.209 661.621 82.5361 661.138 82.7803C660.659 83.0244 660.151 83.1465 659.614 83.1465C658.535 83.1465 657.676 82.7876 657.036 82.0698C656.401 81.3472 656.084 80.3608 656.084 79.1108V78.8838C656.084 78.1123 656.226 77.4263 656.509 76.8257C656.792 76.2251 657.197 75.7588 657.725 75.4268C658.257 75.0947 658.884 74.9287 659.607 74.9287C660.496 74.9287 661.233 75.1948 661.819 75.7271C662.41 76.2593 662.725 76.9502 662.764 77.7998H661.482C661.443 77.2871 661.248 76.8672 660.896 76.54C660.549 76.208 660.12 76.042 659.607 76.042C658.918 76.042 658.384 76.291 658.003 76.7891C657.627 77.2822 657.439 77.9976 657.439 78.9351V79.1914C657.439 80.1045 657.627 80.8076 658.003 81.3008C658.379 81.7939 658.916 82.0405 659.614 82.0405ZM666.125 73.1562V75.0752H667.605V76.1226H666.125V81.0371C666.125 81.3545 666.191 81.5938 666.323 81.7549C666.455 81.9111 666.68 81.9893 666.997 81.9893C667.153 81.9893 667.368 81.96 667.642 81.9014V83C667.285 83.0977 666.938 83.1465 666.602 83.1465C665.996 83.1465 665.54 82.9634 665.232 82.5972C664.924 82.231 664.771 81.7109 664.771 81.0371V76.1226H663.328V75.0752H664.771V73.1562H666.125ZM668.689 78.9644C668.689 78.188 668.84 77.4897 669.143 76.8696C669.451 76.2495 669.875 75.771 670.417 75.4341C670.964 75.0972 671.587 74.9287 672.285 74.9287C673.364 74.9287 674.236 75.3022 674.9 76.0493C675.569 76.7964 675.903 77.79 675.903 79.0303V79.1255C675.903 79.897 675.754 80.5903 675.457 81.2056C675.164 81.8159 674.741 82.292 674.189 82.6338C673.643 82.9756 673.013 83.1465 672.3 83.1465C671.226 83.1465 670.354 82.7729 669.685 82.0259C669.021 81.2788 668.689 80.29 668.689 79.0596V78.9644ZM670.051 79.1255C670.051 80.0044 670.254 80.71 670.659 81.2422C671.069 81.7744 671.616 82.0405 672.3 82.0405C672.988 82.0405 673.535 81.772 673.94 81.2349C674.346 80.6929 674.548 79.936 674.548 78.9644C674.548 78.0952 674.341 77.3921 673.926 76.855C673.516 76.313 672.969 76.042 672.285 76.042C671.616 76.042 671.077 76.3081 670.667 76.8403C670.256 77.3726 670.051 78.1343 670.051 79.1255ZM681.433 76.291C681.228 76.2568 681.006 76.2397 680.767 76.2397C679.878 76.2397 679.275 76.6182 678.958 77.375V83H677.603V75.0752H678.921L678.943 75.9907C679.387 75.2827 680.017 74.9287 680.833 74.9287C681.096 74.9287 681.296 74.9629 681.433 75.0312V76.291ZM682.642 82.2896C682.642 82.0552 682.71 81.8599 682.847 81.7036C682.988 81.5474 683.198 81.4692 683.477 81.4692C683.755 81.4692 683.965 81.5474 684.106 81.7036C684.253 81.8599 684.326 82.0552 684.326 82.2896C684.326 82.5142 684.253 82.7021 684.106 82.8535C683.965 83.0049 683.755 83.0806 683.477 83.0806C683.198 83.0806 682.988 83.0049 682.847 82.8535C682.71 82.7021 682.642 82.5142 682.642 82.2896ZM682.649 75.8223C682.649 75.5879 682.717 75.3926 682.854 75.2363C682.996 75.0801 683.206 75.002 683.484 75.002C683.762 75.002 683.972 75.0801 684.114 75.2363C684.26 75.3926 684.333 75.5879 684.333 75.8223C684.333 76.0469 684.26 76.2349 684.114 76.3862C683.972 76.5376 683.762 76.6133 683.484 76.6133C683.206 76.6133 682.996 76.5376 682.854 76.3862C682.717 76.2349 682.649 76.0469 682.649 75.8223Z" fill="black"/>
<g clip-path="url(#clip1)">
<path d="M564.907 73.264L563.023 75.1201C566.116 78.1677 566.116 83.0715 563.023 86.0733C559.93 89.121 554.953 89.121 551.907 86.0733C548.814 83.0257 548.814 78.1219 551.907 75.1201L556.814 70.2851L557.512 69.5976V65.9542L550.116 73.2411C546 77.297 546 83.8506 550.116 87.9065C554.233 91.9624 560.884 91.9624 564.93 87.9065C569.023 83.8506 569.023 77.3428 564.907 73.264Z" fill="#EE4C2C"/>
<path d="M561.209 72.8286C561.967 72.8286 562.581 72.2233 562.581 71.4766C562.581 70.7299 561.967 70.1246 561.209 70.1246C560.451 70.1246 559.837 70.7299 559.837 71.4766C559.837 72.2233 560.451 72.8286 561.209 72.8286Z" fill="#EE4C2C"/>
</g>
<defs>
<filter id="filter0_d" x="319" y="48" width="173" height="170" filterUnits="userSpaceOnUse" color-interpolation-filters="sRGB">
<feFlood flood-opacity="0" result="BackgroundImageFix"/>
<feColorMatrix in="SourceAlpha" type="matrix" values="0 0 0 0 0 0 0 0 0 0 0 0 0 0 0 0 0 0 127 0"/>
<feOffset/>
<feGaussianBlur stdDeviation="7.5"/>
<feColorMatrix type="matrix" values="0 0 0 0 0 0 0 0 0 0 0 0 0 0 0 0 0 0 0.05 0"/>
<feBlend mode="normal" in2="BackgroundImageFix" result="effect1_dropShadow"/>
<feBlend mode="normal" in="SourceGraphic" in2="effect1_dropShadow" result="shape"/>
</filter>
<filter id="filter1_d" x="22" y="56" width="201" height="85" filterUnits="userSpaceOnUse" color-interpolation-filters="sRGB">
<feFlood flood-opacity="0" result="BackgroundImageFix"/>
<feColorMatrix in="SourceAlpha" type="matrix" values="0 0 0 0 0 0 0 0 0 0 0 0 0 0 0 0 0 0 127 0"/>
<feOffset/>
<feGaussianBlur stdDeviation="7.5"/>
<feColorMatrix type="matrix" values="0 0 0 0 0 0 0 0 0 0 0 0 0 0 0 0 0 0 0.05 0"/>
<feBlend mode="normal" in2="BackgroundImageFix" result="effect1_dropShadow"/>
<feBlend mode="normal" in="SourceGraphic" in2="effect1_dropShadow" result="shape"/>
</filter>
<filter id="filter2_d" x="528" y="91" width="231" height="85" filterUnits="userSpaceOnUse" color-interpolation-filters="sRGB">
<feFlood flood-opacity="0" result="BackgroundImageFix"/>
<feColorMatrix in="SourceAlpha" type="matrix" values="0 0 0 0 0 0 0 0 0 0 0 0 0 0 0 0 0 0 127 0"/>
<feOffset/>
<feGaussianBlur stdDeviation="7.5"/>
<feColorMatrix type="matrix" values="0 0 0 0 0 0 0 0 0 0 0 0 0 0 0 0 0 0 0.05 0"/>
<feBlend mode="normal" in2="BackgroundImageFix" result="effect1_dropShadow"/>
<feBlend mode="normal" in="SourceGraphic" in2="effect1_dropShadow" result="shape"/>
</filter>
<filter id="filter3_d" x="22" y="130" width="201" height="85" filterUnits="userSpaceOnUse" color-interpolation-filters="sRGB">
<feFlood flood-opacity="0" result="BackgroundImageFix"/>
<feColorMatrix in="SourceAlpha" type="matrix" values="0 0 0 0 0 0 0 0 0 0 0 0 0 0 0 0 0 0 127 0"/>
<feOffset/>
<feGaussianBlur stdDeviation="7.5"/>
<feColorMatrix type="matrix" values="0 0 0 0 0 0 0 0 0 0 0 0 0 0 0 0 0 0 0.05 0"/>
<feBlend mode="normal" in2="BackgroundImageFix" result="effect1_dropShadow"/>
<feBlend mode="normal" in="SourceGraphic" in2="effect1_dropShadow" result="shape"/>
</filter>
<linearGradient id="paint0_linear" x1="382.137" y1="121.411" x2="438.559" y2="163.977" gradientUnits="userSpaceOnUse">
<stop stop-color="#FFB800"/>
<stop offset="0.354167" stop-color="#F54747"/>
<stop offset="0.65625" stop-color="#CF329E"/>
<stop offset="1" stop-color="#8D19E9"/>
</linearGradient>
<clipPath id="clip0">
<rect width="21" height="25" fill="white" transform="translate(37 30)"/>
</clipPath>
<clipPath id="clip1">
<rect width="21" height="25" fill="white" transform="translate(547 66)"/>
</clipPath>
</defs>
</svg>
