<svg width="439" height="285" viewBox="0 0 439 285" fill="none" xmlns="http://www.w3.org/2000/svg">
<g clip-path="url(#clip0)">
<rect width="439" height="285" rx="70" fill="white"/>
<path d="M72.0929 205.1C72.0929 203.5 71.6329 202.22 70.7129 201.26C69.8329 200.26 68.6329 199.76 67.1129 199.76C65.8729 199.76 64.5329 200.12 63.0929 200.84V224H56.5529V193.94H62.3729L63.1529 194.3C64.8329 193.74 66.5729 193.46 68.3729 193.46C70.3729 193.46 72.1129 193.82 73.5929 194.54C75.1929 195.26 76.4329 196.34 77.3129 197.78C78.2329 199.22 78.6929 201.04 78.6929 203.24V224H72.0929V205.1ZM90.9929 188.48C90.0329 188.48 89.1929 188.12 88.4729 187.4C87.7529 186.68 87.3929 185.84 87.3929 184.88C87.3929 183.96 87.7529 183.16 88.4729 182.48C89.1929 181.76 90.0329 181.4 90.9929 181.4C91.9129 181.4 92.7129 181.76 93.3929 182.48C94.1129 183.16 94.4729 183.96 94.4729 184.88C94.4729 185.84 94.1129 186.68 93.3929 187.4C92.7129 188.12 91.9129 188.48 90.9929 188.48ZM87.5129 193.94H94.1129V224H87.5129V193.94ZM134.815 205.76C134.815 203.6 134.515 202.04 133.915 201.08C133.355 200.12 132.435 199.64 131.155 199.64C130.235 199.64 128.995 199.92 127.435 200.48L126.415 200.9C126.495 201.14 126.555 201.42 126.595 201.74C126.635 202.06 126.655 202.36 126.655 202.64V224H120.055V205.94C120.055 203.94 119.595 202.4 118.675 201.32C117.755 200.24 116.515 199.7 114.955 199.7C113.555 199.7 112.095 200.14 110.575 201.02V224H103.975V193.94H109.795L110.575 194.36C111.895 193.76 113.395 193.46 115.075 193.46C116.435 193.46 117.755 193.7 119.035 194.18C120.315 194.62 121.435 195.34 122.395 196.34C122.955 196.02 123.795 195.58 124.915 195.02C127.275 193.94 129.555 193.4 131.755 193.4C134.595 193.4 136.915 194.28 138.715 196.04C140.515 197.76 141.415 200.16 141.415 203.24V224H134.815V205.76ZM169.943 214.58C169.943 216.62 169.523 218.34 168.683 219.74C167.843 221.14 166.703 222.2 165.263 222.92C163.983 223.56 162.683 224.02 161.363 224.3C160.083 224.58 158.703 224.72 157.223 224.72C155.743 224.72 153.703 224.58 151.103 224.3L147.803 224V182H154.403V194C156.163 193.6 157.763 193.4 159.203 193.4C161.243 193.4 163.123 193.8 164.843 194.6C168.243 196.16 169.943 199.04 169.943 203.24V214.58ZM163.403 205.1C163.403 203.3 162.903 202.02 161.903 201.26C160.903 200.46 159.683 200.06 158.243 200.06C157.443 200.06 156.683 200.16 155.963 200.36C155.243 200.56 154.723 200.8 154.403 201.08V218.24C155.083 218.44 155.903 218.54 156.863 218.54C158.543 218.54 160.043 218.24 161.363 217.64C162.723 217 163.403 216.02 163.403 214.7V205.1ZM176.397 182H182.997V224H176.397V182ZM196.531 215.06C196.531 216.18 196.831 217.06 197.431 217.7C198.071 218.3 198.991 218.6 200.191 218.6C202.031 218.6 204.491 217.8 207.571 216.2L209.971 221.9C208.531 222.82 206.891 223.52 205.051 224C203.211 224.48 201.371 224.72 199.531 224.72C196.571 224.72 194.211 224 192.451 222.56C190.731 221.08 189.871 218.88 189.871 215.96V203.66C189.871 200.42 190.871 197.9 192.871 196.1C194.911 194.3 197.591 193.4 200.911 193.4C204.231 193.4 206.811 194.3 208.651 196.1C210.531 197.86 211.471 200.32 211.471 203.48V212.6L196.531 213.38V215.06ZM204.811 203.6C204.811 202.4 204.431 201.48 203.671 200.84C202.911 200.2 201.971 199.88 200.851 199.88C199.331 199.88 198.231 200.28 197.551 201.08C196.871 201.88 196.531 202.76 196.531 203.72V207.32L204.811 206.78V203.6ZM218.467 193.94H221.827L221.527 197C222.607 195.84 223.867 194.96 225.307 194.36C226.787 193.76 228.247 193.46 229.687 193.46C233.407 193.46 236.227 194.54 238.147 196.7C240.107 198.86 241.087 201.66 241.087 205.1V213.44C241.087 217.08 240.067 219.88 238.027 221.84C235.987 223.76 233.287 224.72 229.927 224.72C228.207 224.72 226.687 224.48 225.367 224C224.047 223.52 222.867 222.68 221.827 221.48V235.28L218.467 236.6V193.94ZM237.727 204.86C237.727 201.94 236.947 199.82 235.387 198.5C233.867 197.18 232.047 196.52 229.927 196.52C227.767 196.52 225.907 197.18 224.347 198.5C222.787 199.78 221.947 201.8 221.827 204.56V214.04C221.827 216.64 222.567 218.56 224.047 219.8C225.527 221.04 227.487 221.66 229.927 221.66C232.127 221.66 233.967 221.02 235.447 219.74C236.967 218.42 237.727 216.52 237.727 214.04V204.86ZM265.764 203.42C265.764 200.98 265.044 199.22 263.604 198.14C262.204 197.02 260.384 196.46 258.144 196.46C256.784 196.46 255.404 196.66 254.004 197.06C252.604 197.42 251.364 197.9 250.284 198.5V224H246.924V182H250.284V195.56C251.284 194.88 252.484 194.36 253.884 194C255.284 193.6 256.744 193.4 258.264 193.4C260.344 193.4 262.244 193.78 263.964 194.54C265.564 195.26 266.804 196.34 267.684 197.78C268.604 199.22 269.064 201.04 269.064 203.24V224H265.764V203.42ZM286.854 234.02C289.534 233.02 290.874 230.94 290.874 227.78V221.06C290.114 222.34 288.974 223.28 287.454 223.88C285.934 224.44 284.294 224.72 282.534 224.72C279.014 224.72 276.294 223.78 274.374 221.9C272.494 219.98 271.554 217.16 271.554 213.44V193.94H274.794V214.04C274.794 216.6 275.494 218.52 276.894 219.8C278.294 221.04 280.174 221.66 282.534 221.66C285.014 221.66 287.014 221.04 288.534 219.8C290.054 218.56 290.814 216.64 290.814 214.04V202.22C290.814 200.3 290.874 198.88 290.994 197.96C291.114 197 291.474 196.12 292.074 195.32C292.714 194.48 293.754 193.84 295.194 193.4L296.094 195.68C294.734 196.28 294.054 197.68 294.054 199.88V227.66C294.054 230.1 293.574 232.02 292.614 233.42C291.654 234.82 290.034 235.88 287.754 236.6L286.854 234.02ZM303.502 216.38C303.742 218.18 304.642 219.54 306.202 220.46C307.762 221.34 309.502 221.78 311.422 221.78C313.222 221.78 314.862 221.38 316.342 220.58C317.822 219.74 318.562 218.4 318.562 216.56C318.562 215.36 318.202 214.38 317.482 213.62C316.802 212.82 315.942 212.18 314.902 211.7C313.862 211.22 312.462 210.7 310.702 210.14C308.742 209.5 307.142 208.9 305.902 208.34C304.662 207.78 303.582 207 302.662 206C301.742 204.96 301.202 203.66 301.042 202.1L300.982 201.38C300.982 200.06 301.342 198.78 302.062 197.54C302.822 196.26 303.962 195.22 305.482 194.42C307.042 193.62 308.982 193.22 311.302 193.22C312.582 193.22 313.702 193.36 314.662 193.64C315.662 193.88 316.442 194.14 317.002 194.42C317.562 194.7 317.902 194.88 318.022 194.96L316.882 197.72C316.762 197.64 316.462 197.48 315.982 197.24C315.542 197 314.902 196.76 314.062 196.52C313.222 196.28 312.302 196.16 311.302 196.16C309.382 196.16 307.742 196.62 306.382 197.54C305.022 198.42 304.342 199.66 304.342 201.26C304.342 202.78 304.962 203.94 306.202 204.74C307.442 205.54 309.342 206.34 311.902 207.14C314.062 207.86 315.802 208.54 317.122 209.18C318.442 209.82 319.562 210.74 320.482 211.94C321.442 213.1 321.922 214.62 321.922 216.5C321.922 218.9 321.022 220.9 319.222 222.5C317.462 224.1 314.862 224.9 311.422 224.9C309.142 224.9 307.162 224.52 305.482 223.76C303.842 222.96 302.582 221.92 301.702 220.64C300.862 219.36 300.402 217.94 300.322 216.38H303.502ZM330.722 185.42C330.202 185.42 329.722 185.22 329.282 184.82C328.882 184.38 328.682 183.9 328.682 183.38C328.682 182.86 328.882 182.4 329.282 182C329.682 181.6 330.162 181.4 330.722 181.4C331.282 181.4 331.742 181.6 332.102 182C332.502 182.36 332.702 182.82 332.702 183.38C332.702 183.94 332.502 184.42 332.102 184.82C331.702 185.22 331.242 185.42 330.722 185.42ZM328.982 193.94H332.342V224H328.982V193.94ZM358.959 223.64C356.479 224.28 354.079 224.6 351.759 224.6C349.599 224.6 347.799 224.36 346.359 223.88C343.999 223.08 342.279 221.86 341.199 220.22C340.159 218.54 339.639 216.2 339.639 213.2V205.52C339.639 201.56 340.679 198.56 342.759 196.52C344.839 194.44 347.519 193.4 350.799 193.4C353.399 193.4 356.079 194.04 358.839 195.32L357.879 197.78C355.599 196.86 353.399 196.4 351.279 196.4C348.799 196.4 346.799 197.12 345.279 198.56C343.759 199.96 342.999 202.16 342.999 205.16V213.86C342.999 216.62 343.819 218.62 345.459 219.86C347.139 221.1 349.359 221.72 352.119 221.72C353.919 221.72 355.959 221.46 358.239 220.94L358.959 223.64ZM365.787 216.38C366.027 218.18 366.927 219.54 368.487 220.46C370.047 221.34 371.787 221.78 373.707 221.78C375.507 221.78 377.147 221.38 378.627 220.58C380.107 219.74 380.847 218.4 380.847 216.56C380.847 215.36 380.487 214.38 379.767 213.62C379.087 212.82 378.227 212.18 377.187 211.7C376.147 211.22 374.747 210.7 372.987 210.14C371.027 209.5 369.427 208.9 368.187 208.34C366.947 207.78 365.867 207 364.947 206C364.027 204.96 363.487 203.66 363.327 202.1L363.267 201.38C363.267 200.06 363.627 198.78 364.347 197.54C365.107 196.26 366.247 195.22 367.767 194.42C369.327 193.62 371.267 193.22 373.587 193.22C374.867 193.22 375.987 193.36 376.947 193.64C377.947 193.88 378.727 194.14 379.287 194.42C379.847 194.7 380.187 194.88 380.307 194.96L379.167 197.72C379.047 197.64 378.747 197.48 378.267 197.24C377.827 197 377.187 196.76 376.347 196.52C375.507 196.28 374.587 196.16 373.587 196.16C371.667 196.16 370.027 196.62 368.667 197.54C367.307 198.42 366.627 199.66 366.627 201.26C366.627 202.78 367.247 203.94 368.487 204.74C369.727 205.54 371.627 206.34 374.187 207.14C376.347 207.86 378.087 208.54 379.407 209.18C380.727 209.82 381.847 210.74 382.767 211.94C383.727 213.1 384.207 214.62 384.207 216.5C384.207 218.9 383.307 220.9 381.507 222.5C379.747 224.1 377.147 224.9 373.707 224.9C371.427 224.9 369.447 224.52 367.767 223.76C366.127 222.96 364.867 221.92 363.987 220.64C363.147 219.36 362.687 217.94 362.607 216.38H365.787Z" fill="black"/>
<mask id="mask0" mask-type="alpha" maskUnits="userSpaceOnUse" x="148" y="29" width="142" height="140">
<path d="M201.239 107.873C201.239 108.657 200.858 109.597 199.76 110.654C198.657 111.717 196.955 112.766 194.688 113.69C190.165 115.533 183.777 116.718 176.62 116.718C169.462 116.718 163.075 115.533 158.551 113.69C156.285 112.766 154.583 111.717 153.479 110.654C152.382 109.597 152 108.657 152 107.873C152 107.089 152.382 106.15 153.479 105.092C154.583 104.03 156.285 102.98 158.551 102.057C163.075 100.214 169.462 99.0282 176.62 99.0282C183.777 99.0282 190.165 100.214 194.688 102.057C196.955 102.98 198.657 104.03 199.76 105.092C200.858 106.15 201.239 107.089 201.239 107.873Z" stroke="black" stroke-width="4"/>
<path d="M150 119.704C150 125.694 161.918 130.549 176.62 130.549C191.321 130.549 203.239 125.694 203.239 119.704C203.239 113.715 191.321 108.859 176.62 108.859C168.005 108.859 160.346 110.526 155.481 113.112" stroke="black" stroke-width="4"/>
<path d="M201.239 96.0423C201.239 96.8263 200.858 97.7659 199.76 98.8232C198.657 99.886 196.955 100.935 194.688 101.859C190.165 103.702 183.777 104.887 176.62 104.887C169.462 104.887 163.075 103.702 158.551 101.859C156.285 100.935 154.583 99.886 153.479 98.8232C152.382 97.7659 152 96.8263 152 96.0423C152 95.2582 152.382 94.3187 153.479 93.2613C154.583 92.1986 156.285 91.1494 158.551 90.2258C163.075 88.3829 169.462 87.1972 176.62 87.1972C183.777 87.1972 190.165 88.3829 194.688 90.2258C196.955 91.1494 198.657 92.1986 199.76 93.2613C200.858 94.3187 201.239 95.2582 201.239 96.0423Z" stroke="black" stroke-width="4"/>
<path d="M202.361 91.6063C202.121 92.3527 201.47 93.1303 200.101 93.801C198.726 94.475 196.784 94.953 194.344 95.1384C189.473 95.5083 183.029 94.6821 176.215 92.4913C169.401 90.3005 163.684 87.2168 159.941 84.0777C158.066 82.5047 156.767 80.985 156.042 79.6355C155.32 78.2929 155.245 77.2817 155.484 76.5352C155.724 75.7888 156.375 75.0112 157.744 74.3406C159.12 73.6665 161.061 73.1885 163.502 73.0032C168.372 72.6332 174.816 73.4594 181.63 75.6502C188.444 77.841 194.162 80.9247 197.904 84.0638C199.779 85.6368 201.078 87.1566 201.804 88.506C202.525 89.8486 202.601 90.8599 202.361 91.6063Z" stroke="black" stroke-width="4"/>
<path d="M205.568 86.9755C205.096 87.6021 204.227 88.1235 202.714 88.3085C201.193 88.4945 199.202 88.3099 196.836 87.6852C192.113 86.4385 186.296 83.5463 180.576 79.2433C174.856 74.9404 170.465 70.1532 167.958 65.961C166.702 63.8603 165.972 61.9987 165.73 60.4862C165.488 58.9813 165.748 58.0011 166.219 57.3745C166.691 56.7479 167.56 56.2266 169.073 56.0416C170.594 55.8556 172.585 56.0402 174.951 56.6649C179.674 57.9116 185.491 60.8038 191.211 65.1067C196.931 69.4096 201.322 74.1969 203.829 78.3891C205.085 80.4898 205.814 82.3513 206.057 83.8639C206.299 85.3687 206.039 86.349 205.568 86.9755Z" stroke="black" stroke-width="4"/>
<path d="M207.298 84.2447C206.599 84.5989 205.588 84.6827 204.149 84.1809C202.703 83.6765 200.998 82.6321 199.15 81.0267C195.463 77.8232 191.52 72.6602 188.287 66.2742C185.054 59.8882 183.227 53.6541 182.829 48.7858C182.629 46.3463 182.796 44.3541 183.246 42.8897C183.694 41.4327 184.359 40.6679 185.059 40.3138C185.759 39.9596 186.769 39.8758 188.208 40.3776C189.655 40.882 191.36 41.9264 193.207 43.5317C196.895 46.7353 200.837 51.8983 204.07 58.2843C207.303 64.6703 209.13 70.9044 209.529 75.7727C209.729 78.2122 209.561 80.2044 209.111 81.6688C208.664 83.1257 207.998 83.8906 207.298 84.2447Z" stroke="black" stroke-width="4"/>
<path d="M213.741 81.6075C212.983 81.8105 211.977 81.685 210.672 80.8983C209.36 80.1076 207.906 78.7354 206.427 76.7848C203.476 72.8924 200.678 67.0297 198.825 60.116C196.973 53.2022 196.465 46.7258 197.074 41.8794C197.379 39.4508 197.952 37.5354 198.693 36.1946C199.431 34.8606 200.239 34.2488 200.997 34.0459C201.754 33.843 202.76 33.9684 204.066 34.7551C205.378 35.5458 206.832 36.918 208.311 38.8686C211.261 42.7611 214.06 48.6237 215.912 55.5374C217.765 62.4512 218.273 68.9276 217.663 73.774C217.358 76.2026 216.785 78.118 216.044 79.4588C215.307 80.7928 214.498 81.4046 213.741 81.6075Z" stroke="black" stroke-width="4"/>
<path d="M237.705 91.6063C237.945 92.3527 238.596 93.1303 239.964 93.801C241.34 94.475 243.281 94.953 245.722 95.1384C250.592 95.5083 257.036 94.6821 263.85 92.4913C270.664 90.3005 276.382 87.2168 280.124 84.0777C282 82.5047 283.299 80.985 284.024 79.6355C284.745 78.2929 284.821 77.2817 284.581 76.5352C284.341 75.7888 283.69 75.0112 282.321 74.3406C280.946 73.6665 279.004 73.1885 276.564 73.0032C271.693 72.6332 265.25 73.4594 258.436 75.6502C251.621 77.841 245.904 80.9247 242.161 84.0638C240.286 85.6368 238.987 87.1566 238.262 88.506C237.54 89.8486 237.465 90.8599 237.705 91.6063Z" stroke="black" stroke-width="4"/>
<path d="M234.498 86.9755C234.969 87.6021 235.839 88.1235 237.352 88.3085C238.873 88.4945 240.863 88.3099 243.23 87.6852C247.953 86.4385 253.77 83.5463 259.49 79.2433C265.209 74.9404 269.601 70.1532 272.108 65.961C273.364 63.8603 274.093 61.9987 274.336 60.4862C274.578 58.9813 274.318 58.0011 273.846 57.3745C273.375 56.7479 272.505 56.2266 270.992 56.0416C269.472 55.8556 267.481 56.0402 265.115 56.6649C260.392 57.9116 254.575 60.8038 248.855 65.1067C243.135 69.4096 238.744 74.1969 236.237 78.3891C234.98 80.4898 234.251 82.3513 234.008 83.8639C233.767 85.3687 234.027 86.349 234.498 86.9755Z" stroke="black" stroke-width="4"/>
<path d="M232.767 84.2447C233.467 84.5989 234.477 84.6827 235.917 84.1809C237.363 83.6765 239.068 82.6321 240.916 81.0267C244.603 77.8232 248.546 72.6602 251.778 66.2742C255.011 59.8882 256.838 53.6541 257.237 48.7858C257.437 46.3463 257.269 44.3541 256.82 42.8897C256.372 41.4327 255.706 40.6679 255.007 40.3138C254.307 39.9596 253.297 39.8758 251.857 40.3776C250.411 40.882 248.706 41.9264 246.858 43.5317C243.171 46.7353 239.228 51.8983 235.995 58.2843C232.763 64.6703 230.936 70.9044 230.537 75.7727C230.337 78.2122 230.504 80.2044 230.954 81.6688C231.402 83.1257 232.068 83.8906 232.767 84.2447Z" stroke="black" stroke-width="4"/>
<path d="M226.325 81.6075C227.082 81.8105 228.089 81.685 229.394 80.8983C230.706 80.1076 232.16 78.7354 233.639 76.7848C236.59 72.8924 239.388 67.0297 241.241 60.116C243.093 53.2022 243.601 46.7258 242.992 41.8794C242.686 39.4508 242.113 37.5354 241.372 36.1946C240.635 34.8606 239.826 34.2488 239.069 34.0459C238.312 33.843 237.305 33.9684 236 34.7551C234.688 35.5458 233.234 36.918 231.755 38.8686C228.804 42.7611 226.006 48.6237 224.153 55.5374C222.301 62.4512 221.793 68.9276 222.402 73.774C222.708 76.2026 223.281 78.118 224.022 79.4588C224.759 80.7928 225.568 81.4046 226.325 81.6075Z" stroke="black" stroke-width="4"/>
<path d="M219.51 80.2394C220.294 80.2394 221.234 79.8578 222.291 78.7601C223.354 77.6567 224.403 75.9549 225.327 73.6881C227.169 69.1645 228.355 62.7774 228.355 55.6197C228.355 48.4621 227.169 42.0749 225.327 37.5513C224.403 35.2845 223.354 33.5827 222.291 32.4794C221.234 31.3817 220.294 31 219.51 31C218.726 31 217.787 31.3817 216.729 32.4794C215.666 33.5827 214.617 35.2845 213.694 37.5513C211.851 42.0749 210.665 48.4621 210.665 55.6197C210.665 62.7774 211.851 69.1645 213.694 73.6881C214.617 75.9549 215.666 77.6567 216.729 78.7601C217.787 79.8578 218.726 80.2394 219.51 80.2394Z" stroke="black" stroke-width="4"/>
<path d="M288 119.704C288 120.488 287.618 121.428 286.521 122.485C285.417 123.548 283.715 124.597 281.449 125.521C276.925 127.364 270.538 128.549 263.38 128.549C256.223 128.549 249.835 127.364 245.312 125.521C243.045 124.597 241.343 123.548 240.24 122.485C239.142 121.428 238.76 120.488 238.76 119.704C238.76 118.92 239.142 117.981 240.24 116.923C241.343 115.861 243.045 114.811 245.312 113.888C249.835 112.045 256.223 110.859 263.38 110.859C270.538 110.859 276.925 112.045 281.449 113.888C283.715 114.811 285.417 115.861 286.521 116.923C287.618 117.981 288 118.92 288 119.704Z" stroke="black" stroke-width="4"/>
<path d="M288 143.366C288 144.15 287.618 145.09 286.521 146.147C285.417 147.21 283.715 148.259 281.449 149.183C276.925 151.026 270.538 152.211 263.38 152.211C256.223 152.211 249.835 151.026 245.312 149.183C243.045 148.259 241.343 147.21 240.24 146.147C239.142 145.09 238.76 144.15 238.76 143.366C238.76 142.582 239.142 141.643 240.24 140.585C241.343 139.523 243.045 138.473 245.312 137.55C249.835 135.707 256.223 134.521 263.38 134.521C270.538 134.521 276.925 135.707 281.449 137.55C283.715 138.473 285.417 139.523 286.521 140.585C287.618 141.643 288 142.582 288 143.366Z" stroke="black" stroke-width="4"/>
<path d="M283.89 163.968C278.992 165.273 272.959 166.042 266.435 166.042C250.046 166.042 236.76 161.187 236.76 155.197C236.76 149.208 250.046 144.352 266.435 144.352C273.957 144.352 280.826 145.375 286.056 147.061" stroke="black" stroke-width="4"/>
<path d="M288 131.535C288 132.319 287.618 133.259 286.521 134.316C285.417 135.379 283.715 136.428 281.449 137.352C276.925 139.195 270.538 140.38 263.38 140.38C256.223 140.38 249.835 139.195 245.312 137.352C243.045 136.428 241.343 135.379 240.24 134.316C239.142 133.259 238.76 132.319 238.76 131.535C238.76 130.751 239.142 129.812 240.24 128.754C241.343 127.692 243.045 126.642 245.312 125.719C249.835 123.876 256.223 122.69 263.38 122.69C270.538 122.69 276.925 123.876 281.449 125.719C283.715 126.642 285.417 127.692 286.521 128.754C287.618 129.812 288 130.751 288 131.535Z" stroke="black" stroke-width="4"/>
<path d="M288 107.873C288 108.657 287.618 109.597 286.521 110.654C285.417 111.717 283.715 112.766 281.449 113.69C276.925 115.533 270.538 116.718 263.38 116.718C256.223 116.718 249.835 115.533 245.312 113.69C243.045 112.766 241.343 111.717 240.24 110.654C239.142 109.597 238.76 108.657 238.76 107.873C238.76 107.089 239.142 106.15 240.24 105.092C241.343 104.03 243.045 102.98 245.312 102.057C249.835 100.214 256.223 99.0282 263.38 99.0282C270.538 99.0282 276.925 100.214 281.449 102.057C283.715 102.98 285.417 104.03 286.521 105.092C287.618 106.15 288 107.089 288 107.873Z" stroke="black" stroke-width="4"/>
<path d="M288 96.0423C288 96.8263 287.618 97.7659 286.521 98.8232C285.417 99.886 283.715 100.935 281.449 101.859C276.925 103.702 270.538 104.887 263.38 104.887C256.223 104.887 249.835 103.702 245.312 101.859C243.045 100.935 241.343 99.886 240.24 98.8232C239.142 97.7659 238.76 96.8263 238.76 96.0423C238.76 95.2582 239.142 94.3187 240.24 93.2613C241.343 92.1986 243.045 91.1494 245.312 90.2258C249.835 88.3829 256.223 87.1972 263.38 87.1972C270.538 87.1972 276.925 88.3829 281.449 90.2258C283.715 91.1494 285.417 92.1986 286.521 93.2613C287.618 94.3187 288 95.2582 288 96.0423Z" stroke="black" stroke-width="4"/>
</mask>
<g mask="url(#mask0)">
<rect x="125.995" y="24.6306" width="186.728" height="143.115" fill="url(#paint0_linear)"/>
</g>
</g>
<defs>
<linearGradient id="paint0_linear" x1="171.531" y1="69.0678" x2="290.916" y2="159.133" gradientUnits="userSpaceOnUse">
<stop stop-color="#FFB800"/>
<stop offset="0.354167" stop-color="#F54747"/>
<stop offset="0.65625" stop-color="#CF329E"/>
<stop offset="1" stop-color="#8D19E9"/>
</linearGradient>
<clipPath id="clip0">
<rect width="439" height="285" fill="white"/>
</clipPath>
</defs>
</svg>
